<?xml version="1.0" encoding="UTF-8" standalone="no"?>
<!DOCTYPE svg PUBLIC "-//W3C//DTD SVG 1.1//EN"
 "http://www.w3.org/Graphics/SVG/1.1/DTD/svg11.dtd">
<!-- Generated by graphviz version 14.1.1 (20251213.1925)
 -->
<!-- Title: InheritanceTree Pages: 1 -->
<svg width="650pt" height="4101pt"
 viewBox="0.00 0.00 650.00 4101.00" xmlns="http://www.w3.org/2000/svg" xmlns:xlink="http://www.w3.org/1999/xlink">
<g id="graph0" class="graph" transform="scale(1 1) rotate(0) translate(4 4096.5)">
<title>InheritanceTree</title>
<polygon fill="white" stroke="none" points="-4,4 -4,-4096.5 645.75,-4096.5 645.75,4 -4,4"/>
<text xml:space="preserve" text-anchor="middle" x="320.88" y="-7.2" font-family="Times New Roman,serif" font-size="14.00">simple_web &#45; Inheritance Hierarchy</text>
<!-- SIMPLE_WEB_CLAUDE_CLIENT -->
<g id="node1" class="node">
<title>SIMPLE_WEB_CLAUDE_CLIENT</title>
<path fill="none" stroke="black" d="M263.5,-420.5C263.5,-420.5 69,-420.5 69,-420.5 63,-420.5 57,-414.5 57,-408.5 57,-408.5 57,-396.5 57,-396.5 57,-390.5 63,-384.5 69,-384.5 69,-384.5 263.5,-384.5 263.5,-384.5 269.5,-384.5 275.5,-390.5 275.5,-396.5 275.5,-396.5 275.5,-408.5 275.5,-408.5 275.5,-414.5 269.5,-420.5 263.5,-420.5"/>
<text xml:space="preserve" text-anchor="middle" x="166.25" y="-397.45" font-family="Times New Roman,serif" font-size="14.00">SIMPLE_WEB_CLAUDE_CLIENT</text>
</g>
<!-- SIMPLE_WEB_CONSTANTS -->
<g id="node2" class="node">
<title>SIMPLE_WEB_CONSTANTS</title>
<path fill="none" stroke="black" d="M623,-240.5C623,-240.5 459.25,-240.5 459.25,-240.5 453.25,-240.5 447.25,-234.5 447.25,-228.5 447.25,-228.5 447.25,-216.5 447.25,-216.5 447.25,-210.5 453.25,-204.5 459.25,-204.5 459.25,-204.5 623,-204.5 623,-204.5 629,-204.5 635,-210.5 635,-216.5 635,-216.5 635,-228.5 635,-228.5 635,-234.5 629,-240.5 623,-240.5"/>
<text xml:space="preserve" text-anchor="middle" x="541.12" y="-217.45" font-family="Times New Roman,serif" font-size="14.00">SIMPLE_WEB_CONSTANTS</text>
</g>
<!-- SIMPLE_WEB_CLAUDE_CLIENT&#45;&gt;SIMPLE_WEB_CONSTANTS -->
<g id="edge1" class="edge">
<title>SIMPLE_WEB_CLAUDE_CLIENT&#45;&gt;SIMPLE_WEB_CONSTANTS</title>
<path fill="none" stroke="black" d="M275.97,-402.5C374.16,-402.5 502.75,-402.5 502.75,-402.5 502.75,-402.5 502.75,-252.26 502.75,-252.26"/>
<polygon fill="none" stroke="black" points="506.25,-252.26 502.75,-242.26 499.25,-252.26 506.25,-252.26"/>
</g>
<!-- SIMPLE_WEB_OLLAMA_CLIENT -->
<g id="node3" class="node">
<title>SIMPLE_WEB_OLLAMA_CLIENT</title>
<path fill="none" stroke="black" d="M265.38,-636.5C265.38,-636.5 67.12,-636.5 67.12,-636.5 61.12,-636.5 55.12,-630.5 55.12,-624.5 55.12,-624.5 55.12,-612.5 55.12,-612.5 55.12,-606.5 61.12,-600.5 67.12,-600.5 67.12,-600.5 265.38,-600.5 265.38,-600.5 271.38,-600.5 277.38,-606.5 277.38,-612.5 277.38,-612.5 277.38,-624.5 277.38,-624.5 277.38,-630.5 271.38,-636.5 265.38,-636.5"/>
<text xml:space="preserve" text-anchor="middle" x="166.25" y="-613.45" font-family="Times New Roman,serif" font-size="14.00">SIMPLE_WEB_OLLAMA_CLIENT</text>
</g>
<!-- ANY -->
<g id="node4" class="node">
<title>ANY</title>
<path fill="none" stroke="black" d="M556.12,-564.5C556.12,-564.5 526.12,-564.5 526.12,-564.5 520.12,-564.5 514.12,-558.5 514.12,-552.5 514.12,-552.5 514.12,-540.5 514.12,-540.5 514.12,-534.5 520.12,-528.5 526.12,-528.5 526.12,-528.5 556.12,-528.5 556.12,-528.5 562.12,-528.5 568.12,-534.5 568.12,-540.5 568.12,-540.5 568.12,-552.5 568.12,-552.5 568.12,-558.5 562.12,-564.5 556.12,-564.5"/>
<text xml:space="preserve" text-anchor="middle" x="541.12" y="-541.45" font-family="Times New Roman,serif" font-size="14.00">ANY</text>
</g>
<!-- SIMPLE_WEB_OLLAMA_CLIENT&#45;&gt;ANY -->
<g id="edge2" class="edge">
<title>SIMPLE_WEB_OLLAMA_CLIENT&#45;&gt;ANY</title>
<path fill="none" stroke="black" d="M264.75,-600.28C264.75,-581.67 264.75,-555.5 264.75,-555.5 264.75,-555.5 502.36,-555.5 502.36,-555.5"/>
<polygon fill="none" stroke="black" points="502.36,-559 512.36,-555.5 502.36,-552 502.36,-559"/>
</g>
<!-- SIMPLE_WEB_OPENAI_CLIENT -->
<g id="node5" class="node">
<title>SIMPLE_WEB_OPENAI_CLIENT</title>
<path fill="none" stroke="black" d="M260.88,-348.5C260.88,-348.5 71.62,-348.5 71.62,-348.5 65.62,-348.5 59.62,-342.5 59.62,-336.5 59.62,-336.5 59.62,-324.5 59.62,-324.5 59.62,-318.5 65.62,-312.5 71.62,-312.5 71.62,-312.5 260.88,-312.5 260.88,-312.5 266.88,-312.5 272.88,-318.5 272.88,-324.5 272.88,-324.5 272.88,-336.5 272.88,-336.5 272.88,-342.5 266.88,-348.5 260.88,-348.5"/>
<text xml:space="preserve" text-anchor="middle" x="166.25" y="-325.45" font-family="Times New Roman,serif" font-size="14.00">SIMPLE_WEB_OPENAI_CLIENT</text>
</g>
<!-- SIMPLE_WEB_OPENAI_CLIENT&#45;&gt;SIMPLE_WEB_CONSTANTS -->
<g id="edge3" class="edge">
<title>SIMPLE_WEB_OPENAI_CLIENT&#45;&gt;SIMPLE_WEB_CONSTANTS</title>
<path fill="none" stroke="black" d="M263.75,-312.26C263.75,-282.93 263.75,-228.5 263.75,-228.5 263.75,-228.5 435.32,-228.5 435.32,-228.5"/>
<polygon fill="none" stroke="black" points="435.32,-232 445.32,-228.5 435.32,-225 435.32,-232"/>
</g>
<!-- SIMPLE_WEB_CLIENT -->
<g id="node6" class="node">
<title>SIMPLE_WEB_CLIENT</title>
<path fill="none" stroke="black" d="M232.75,-276.5C232.75,-276.5 99.75,-276.5 99.75,-276.5 93.75,-276.5 87.75,-270.5 87.75,-264.5 87.75,-264.5 87.75,-252.5 87.75,-252.5 87.75,-246.5 93.75,-240.5 99.75,-240.5 99.75,-240.5 232.75,-240.5 232.75,-240.5 238.75,-240.5 244.75,-246.5 244.75,-252.5 244.75,-252.5 244.75,-264.5 244.75,-264.5 244.75,-270.5 238.75,-276.5 232.75,-276.5"/>
<text xml:space="preserve" text-anchor="middle" x="166.25" y="-253.45" font-family="Times New Roman,serif" font-size="14.00">SIMPLE_WEB_CLIENT</text>
</g>
<!-- SIMPLE_WEB_CLIENT&#45;&gt;SIMPLE_WEB_CONSTANTS -->
<g id="edge4" class="edge">
<title>SIMPLE_WEB_CLIENT&#45;&gt;SIMPLE_WEB_CONSTANTS</title>
<path fill="none" stroke="black" d="M245.04,-258.5C341.38,-258.5 491.75,-258.5 491.75,-258.5 491.75,-258.5 491.75,-252.44 491.75,-252.44"/>
<polygon fill="none" stroke="black" points="495.25,-252.44 491.75,-242.44 488.25,-252.44 495.25,-252.44"/>
</g>
<!-- SIMPLE_WEB_HYBRID_CLIENT -->
<g id="node7" class="node">
<title>SIMPLE_WEB_HYBRID_CLIENT</title>
<path fill="none" stroke="black" d="M262,-204.5C262,-204.5 70.5,-204.5 70.5,-204.5 64.5,-204.5 58.5,-198.5 58.5,-192.5 58.5,-192.5 58.5,-180.5 58.5,-180.5 58.5,-174.5 64.5,-168.5 70.5,-168.5 70.5,-168.5 262,-168.5 262,-168.5 268,-168.5 274,-174.5 274,-180.5 274,-180.5 274,-192.5 274,-192.5 274,-198.5 268,-204.5 262,-204.5"/>
<text xml:space="preserve" text-anchor="middle" x="166.25" y="-181.45" font-family="Times New Roman,serif" font-size="14.00">SIMPLE_WEB_HYBRID_CLIENT</text>
</g>
<!-- SIMPLE_WEB_HYBRID_CLIENT&#45;&gt;SIMPLE_WEB_CONSTANTS -->
<g id="edge5" class="edge">
<title>SIMPLE_WEB_HYBRID_CLIENT&#45;&gt;SIMPLE_WEB_CONSTANTS</title>
<path fill="none" stroke="black" d="M253.75,-204.99C253.75,-211.16 253.75,-216.5 253.75,-216.5 253.75,-216.5 435.51,-216.5 435.51,-216.5"/>
<polygon fill="none" stroke="black" points="435.51,-220 445.51,-216.5 435.51,-213 435.51,-220"/>
</g>
<!-- SIMPLE_WEB_REQUEST -->
<g id="node8" class="node">
<title>SIMPLE_WEB_REQUEST</title>
<path fill="none" stroke="black" d="M239.12,-132.5C239.12,-132.5 93.38,-132.5 93.38,-132.5 87.38,-132.5 81.38,-126.5 81.38,-120.5 81.38,-120.5 81.38,-108.5 81.38,-108.5 81.38,-102.5 87.38,-96.5 93.38,-96.5 93.38,-96.5 239.12,-96.5 239.12,-96.5 245.12,-96.5 251.12,-102.5 251.12,-108.5 251.12,-108.5 251.12,-120.5 251.12,-120.5 251.12,-126.5 245.12,-132.5 239.12,-132.5"/>
<text xml:space="preserve" text-anchor="middle" x="166.25" y="-109.45" font-family="Times New Roman,serif" font-size="14.00">SIMPLE_WEB_REQUEST</text>
</g>
<!-- SIMPLE_WEB_REQUEST&#45;&gt;SIMPLE_WEB_CONSTANTS -->
<g id="edge6" class="edge">
<title>SIMPLE_WEB_REQUEST&#45;&gt;SIMPLE_WEB_CONSTANTS</title>
<path fill="none" stroke="black" d="M251.6,-114.5C353.33,-114.5 509.75,-114.5 509.75,-114.5 509.75,-114.5 509.75,-192.67 509.75,-192.67"/>
<polygon fill="none" stroke="black" points="506.25,-192.67 509.75,-202.67 513.25,-192.67 506.25,-192.67"/>
</g>
<!-- SIMPLE_WEB_RESPONSE -->
<g id="node9" class="node">
<title>SIMPLE_WEB_RESPONSE</title>
<path fill="none" stroke="black" d="M242.5,-60.5C242.5,-60.5 90,-60.5 90,-60.5 84,-60.5 78,-54.5 78,-48.5 78,-48.5 78,-36.5 78,-36.5 78,-30.5 84,-24.5 90,-24.5 90,-24.5 242.5,-24.5 242.5,-24.5 248.5,-24.5 254.5,-30.5 254.5,-36.5 254.5,-36.5 254.5,-48.5 254.5,-48.5 254.5,-54.5 248.5,-60.5 242.5,-60.5"/>
<text xml:space="preserve" text-anchor="middle" x="166.25" y="-37.45" font-family="Times New Roman,serif" font-size="14.00">SIMPLE_WEB_RESPONSE</text>
</g>
<!-- SIMPLE_WEB_RESPONSE&#45;&gt;SIMPLE_WEB_CONSTANTS -->
<g id="edge7" class="edge">
<title>SIMPLE_WEB_RESPONSE&#45;&gt;SIMPLE_WEB_CONSTANTS</title>
<path fill="none" stroke="black" d="M254.96,-42.5C374.56,-42.5 572.75,-42.5 572.75,-42.5 572.75,-42.5 572.75,-192.74 572.75,-192.74"/>
<polygon fill="none" stroke="black" points="569.25,-192.74 572.75,-202.74 576.25,-192.74 569.25,-192.74"/>
</g>
<!-- SIMPLE_BULKHEAD -->
<g id="node10" class="node">
<title>SIMPLE_BULKHEAD</title>
<path fill="none" stroke="black" d="M227.12,-708.5C227.12,-708.5 105.38,-708.5 105.38,-708.5 99.38,-708.5 93.38,-702.5 93.38,-696.5 93.38,-696.5 93.38,-684.5 93.38,-684.5 93.38,-678.5 99.38,-672.5 105.38,-672.5 105.38,-672.5 227.12,-672.5 227.12,-672.5 233.12,-672.5 239.12,-678.5 239.12,-684.5 239.12,-684.5 239.12,-696.5 239.12,-696.5 239.12,-702.5 233.12,-708.5 227.12,-708.5"/>
<text xml:space="preserve" text-anchor="middle" x="166.25" y="-685.45" font-family="Times New Roman,serif" font-size="14.00">SIMPLE_BULKHEAD</text>
</g>
<!-- SIMPLE_CIRCUIT_BREAKER -->
<g id="node11" class="node">
<title>SIMPLE_CIRCUIT_BREAKER</title>
<path fill="none" stroke="black" d="M251.88,-780.5C251.88,-780.5 80.62,-780.5 80.62,-780.5 74.62,-780.5 68.62,-774.5 68.62,-768.5 68.62,-768.5 68.62,-756.5 68.62,-756.5 68.62,-750.5 74.62,-744.5 80.62,-744.5 80.62,-744.5 251.88,-744.5 251.88,-744.5 257.88,-744.5 263.88,-750.5 263.88,-756.5 263.88,-756.5 263.88,-768.5 263.88,-768.5 263.88,-774.5 257.88,-780.5 251.88,-780.5"/>
<text xml:space="preserve" text-anchor="middle" x="166.25" y="-757.45" font-family="Times New Roman,serif" font-size="14.00">SIMPLE_CIRCUIT_BREAKER</text>
</g>
<!-- SIMPLE_RESILIENCE_POLICY -->
<g id="node12" class="node">
<title>SIMPLE_RESILIENCE_POLICY</title>
<path fill="none" stroke="black" d="M256.38,-852.5C256.38,-852.5 76.12,-852.5 76.12,-852.5 70.12,-852.5 64.12,-846.5 64.12,-840.5 64.12,-840.5 64.12,-828.5 64.12,-828.5 64.12,-822.5 70.12,-816.5 76.12,-816.5 76.12,-816.5 256.38,-816.5 256.38,-816.5 262.38,-816.5 268.38,-822.5 268.38,-828.5 268.38,-828.5 268.38,-840.5 268.38,-840.5 268.38,-846.5 262.38,-852.5 256.38,-852.5"/>
<text xml:space="preserve" text-anchor="middle" x="166.25" y="-829.45" font-family="Times New Roman,serif" font-size="14.00">SIMPLE_RESILIENCE_POLICY</text>
</g>
<!-- SIMPLE_WEB_RESILIENCE_MIDDLEWARE -->
<g id="node13" class="node">
<title>SIMPLE_WEB_RESILIENCE_MIDDLEWARE</title>
<path fill="none" stroke="black" d="M296.88,-1356.5C296.88,-1356.5 35.62,-1356.5 35.62,-1356.5 29.62,-1356.5 23.62,-1350.5 23.62,-1344.5 23.62,-1344.5 23.62,-1332.5 23.62,-1332.5 23.62,-1326.5 29.62,-1320.5 35.62,-1320.5 35.62,-1320.5 296.88,-1320.5 296.88,-1320.5 302.88,-1320.5 308.88,-1326.5 308.88,-1332.5 308.88,-1332.5 308.88,-1344.5 308.88,-1344.5 308.88,-1350.5 302.88,-1356.5 296.88,-1356.5"/>
<text xml:space="preserve" text-anchor="middle" x="166.25" y="-1333.45" font-family="Times New Roman,serif" font-size="14.00">SIMPLE_WEB_RESILIENCE_MIDDLEWARE</text>
</g>
<!-- SIMPLE_WEB_MIDDLEWARE -->
<g id="node14" class="node">
<title>SIMPLE_WEB_MIDDLEWARE</title>
<path fill="none" stroke="black" d="M629.75,-1140.5C629.75,-1140.5 452.5,-1140.5 452.5,-1140.5 446.5,-1140.5 440.5,-1134.5 440.5,-1128.5 440.5,-1128.5 440.5,-1116.5 440.5,-1116.5 440.5,-1110.5 446.5,-1104.5 452.5,-1104.5 452.5,-1104.5 629.75,-1104.5 629.75,-1104.5 635.75,-1104.5 641.75,-1110.5 641.75,-1116.5 641.75,-1116.5 641.75,-1128.5 641.75,-1128.5 641.75,-1134.5 635.75,-1140.5 629.75,-1140.5"/>
<text xml:space="preserve" text-anchor="middle" x="541.12" y="-1117.45" font-family="Times New Roman,serif" font-size="14.00">SIMPLE_WEB_MIDDLEWARE</text>
</g>
<!-- SIMPLE_WEB_RESILIENCE_MIDDLEWARE&#45;&gt;SIMPLE_WEB_MIDDLEWARE -->
<g id="edge8" class="edge">
<title>SIMPLE_WEB_RESILIENCE_MIDDLEWARE&#45;&gt;SIMPLE_WEB_MIDDLEWARE</title>
<path fill="none" stroke="black" d="M304.75,-1320.23C304.75,-1269.14 304.75,-1128.5 304.75,-1128.5 304.75,-1128.5 428.68,-1128.5 428.68,-1128.5"/>
<polygon fill="none" stroke="black" points="428.68,-1132 438.68,-1128.5 428.68,-1125 428.68,-1132"/>
</g>
<!-- SIMPLE_WEB_AUTH_MIDDLEWARE -->
<g id="node15" class="node">
<title>SIMPLE_WEB_AUTH_MIDDLEWARE</title>
<path fill="none" stroke="black" d="M277,-1284.5C277,-1284.5 55.5,-1284.5 55.5,-1284.5 49.5,-1284.5 43.5,-1278.5 43.5,-1272.5 43.5,-1272.5 43.5,-1260.5 43.5,-1260.5 43.5,-1254.5 49.5,-1248.5 55.5,-1248.5 55.5,-1248.5 277,-1248.5 277,-1248.5 283,-1248.5 289,-1254.5 289,-1260.5 289,-1260.5 289,-1272.5 289,-1272.5 289,-1278.5 283,-1284.5 277,-1284.5"/>
<text xml:space="preserve" text-anchor="middle" x="166.25" y="-1261.45" font-family="Times New Roman,serif" font-size="14.00">SIMPLE_WEB_AUTH_MIDDLEWARE</text>
</g>
<!-- SIMPLE_WEB_AUTH_MIDDLEWARE&#45;&gt;SIMPLE_WEB_MIDDLEWARE -->
<g id="edge9" class="edge">
<title>SIMPLE_WEB_AUTH_MIDDLEWARE&#45;&gt;SIMPLE_WEB_MIDDLEWARE</title>
<path fill="none" stroke="black" d="M289.25,-1266.5C364.24,-1266.5 445.75,-1266.5 445.75,-1266.5 445.75,-1266.5 445.75,-1152.25 445.75,-1152.25"/>
<polygon fill="none" stroke="black" points="449.25,-1152.25 445.75,-1142.25 442.25,-1152.25 449.25,-1152.25"/>
</g>
<!-- SIMPLE_WEB_CORS_MIDDLEWARE -->
<g id="node16" class="node">
<title>SIMPLE_WEB_CORS_MIDDLEWARE</title>
<path fill="none" stroke="black" d="M275.88,-1212.5C275.88,-1212.5 56.62,-1212.5 56.62,-1212.5 50.62,-1212.5 44.62,-1206.5 44.62,-1200.5 44.62,-1200.5 44.62,-1188.5 44.62,-1188.5 44.62,-1182.5 50.62,-1176.5 56.62,-1176.5 56.62,-1176.5 275.88,-1176.5 275.88,-1176.5 281.88,-1176.5 287.88,-1182.5 287.88,-1188.5 287.88,-1188.5 287.88,-1200.5 287.88,-1200.5 287.88,-1206.5 281.88,-1212.5 275.88,-1212.5"/>
<text xml:space="preserve" text-anchor="middle" x="166.25" y="-1189.45" font-family="Times New Roman,serif" font-size="14.00">SIMPLE_WEB_CORS_MIDDLEWARE</text>
</g>
<!-- SIMPLE_WEB_CORS_MIDDLEWARE&#45;&gt;SIMPLE_WEB_MIDDLEWARE -->
<g id="edge10" class="edge">
<title>SIMPLE_WEB_CORS_MIDDLEWARE&#45;&gt;SIMPLE_WEB_MIDDLEWARE</title>
<path fill="none" stroke="black" d="M288.33,-1194.5C362.4,-1194.5 442.75,-1194.5 442.75,-1194.5 442.75,-1194.5 442.75,-1152.18 442.75,-1152.18"/>
<polygon fill="none" stroke="black" points="446.25,-1152.18 442.75,-1142.18 439.25,-1152.18 446.25,-1152.18"/>
</g>
<!-- SIMPLE_WEB_LOGGING_MIDDLEWARE -->
<g id="node17" class="node">
<title>SIMPLE_WEB_LOGGING_MIDDLEWARE</title>
<path fill="none" stroke="black" d="M289,-1140.5C289,-1140.5 43.5,-1140.5 43.5,-1140.5 37.5,-1140.5 31.5,-1134.5 31.5,-1128.5 31.5,-1128.5 31.5,-1116.5 31.5,-1116.5 31.5,-1110.5 37.5,-1104.5 43.5,-1104.5 43.5,-1104.5 289,-1104.5 289,-1104.5 295,-1104.5 301,-1110.5 301,-1116.5 301,-1116.5 301,-1128.5 301,-1128.5 301,-1134.5 295,-1140.5 289,-1140.5"/>
<text xml:space="preserve" text-anchor="middle" x="166.25" y="-1117.45" font-family="Times New Roman,serif" font-size="14.00">SIMPLE_WEB_LOGGING_MIDDLEWARE</text>
</g>
<!-- SIMPLE_WEB_LOGGING_MIDDLEWARE&#45;&gt;SIMPLE_WEB_MIDDLEWARE -->
<g id="edge11" class="edge">
<title>SIMPLE_WEB_LOGGING_MIDDLEWARE&#45;&gt;SIMPLE_WEB_MIDDLEWARE</title>
<path fill="none" stroke="black" d="M301.32,-1116.5C301.32,-1116.5 428.75,-1116.5 428.75,-1116.5"/>
<polygon fill="none" stroke="black" points="428.75,-1120 438.75,-1116.5 428.75,-1113 428.75,-1120"/>
</g>
<!-- SIMPLE_WEB_MIDDLEWARE_PIPELINE -->
<g id="node18" class="node">
<title>SIMPLE_WEB_MIDDLEWARE_PIPELINE</title>
<path fill="none" stroke="black" d="M287.5,-1428.5C287.5,-1428.5 45,-1428.5 45,-1428.5 39,-1428.5 33,-1422.5 33,-1416.5 33,-1416.5 33,-1404.5 33,-1404.5 33,-1398.5 39,-1392.5 45,-1392.5 45,-1392.5 287.5,-1392.5 287.5,-1392.5 293.5,-1392.5 299.5,-1398.5 299.5,-1404.5 299.5,-1404.5 299.5,-1416.5 299.5,-1416.5 299.5,-1422.5 293.5,-1428.5 287.5,-1428.5"/>
<text xml:space="preserve" text-anchor="middle" x="166.25" y="-1405.45" font-family="Times New Roman,serif" font-size="14.00">SIMPLE_WEB_MIDDLEWARE_PIPELINE</text>
</g>
<!-- SIMPLE_WEB_SANITIZER -->
<g id="node19" class="node">
<title>SIMPLE_WEB_SANITIZER</title>
<path fill="none" stroke="black" d="M243.62,-1500.5C243.62,-1500.5 88.88,-1500.5 88.88,-1500.5 82.88,-1500.5 76.88,-1494.5 76.88,-1488.5 76.88,-1488.5 76.88,-1476.5 76.88,-1476.5 76.88,-1470.5 82.88,-1464.5 88.88,-1464.5 88.88,-1464.5 243.62,-1464.5 243.62,-1464.5 249.62,-1464.5 255.62,-1470.5 255.62,-1476.5 255.62,-1476.5 255.62,-1488.5 255.62,-1488.5 255.62,-1494.5 249.62,-1500.5 243.62,-1500.5"/>
<text xml:space="preserve" text-anchor="middle" x="166.25" y="-1477.45" font-family="Times New Roman,serif" font-size="14.00">SIMPLE_WEB_SANITIZER</text>
</g>
<!-- SIMPLE_WEB_SERVER -->
<g id="node20" class="node">
<title>SIMPLE_WEB_SERVER</title>
<path fill="none" stroke="black" d="M234.25,-1572.5C234.25,-1572.5 98.25,-1572.5 98.25,-1572.5 92.25,-1572.5 86.25,-1566.5 86.25,-1560.5 86.25,-1560.5 86.25,-1548.5 86.25,-1548.5 86.25,-1542.5 92.25,-1536.5 98.25,-1536.5 98.25,-1536.5 234.25,-1536.5 234.25,-1536.5 240.25,-1536.5 246.25,-1542.5 246.25,-1548.5 246.25,-1548.5 246.25,-1560.5 246.25,-1560.5 246.25,-1566.5 240.25,-1572.5 234.25,-1572.5"/>
<text xml:space="preserve" text-anchor="middle" x="166.25" y="-1549.45" font-family="Times New Roman,serif" font-size="14.00">SIMPLE_WEB_SERVER</text>
</g>
<!-- WSF_DEFAULT_SERVICE -->
<g id="node21" class="node">
<title>WSF_DEFAULT_SERVICE</title>
<path fill="none" stroke="black" d="M615.88,-1572.5C615.88,-1572.5 466.38,-1572.5 466.38,-1572.5 460.38,-1572.5 454.38,-1566.5 454.38,-1560.5 454.38,-1560.5 454.38,-1548.5 454.38,-1548.5 454.38,-1542.5 460.38,-1536.5 466.38,-1536.5 466.38,-1536.5 615.88,-1536.5 615.88,-1536.5 621.88,-1536.5 627.88,-1542.5 627.88,-1548.5 627.88,-1548.5 627.88,-1560.5 627.88,-1560.5 627.88,-1566.5 621.88,-1572.5 615.88,-1572.5"/>
<text xml:space="preserve" text-anchor="middle" x="541.12" y="-1549.45" font-family="Times New Roman,serif" font-size="14.00">WSF_DEFAULT_SERVICE</text>
</g>
<!-- SIMPLE_WEB_SERVER&#45;&gt;WSF_DEFAULT_SERVICE -->
<g id="edge12" class="edge">
<title>SIMPLE_WEB_SERVER&#45;&gt;WSF_DEFAULT_SERVICE</title>
<path fill="none" stroke="black" d="M246.67,-1554.5C246.67,-1554.5 442.46,-1554.5 442.46,-1554.5"/>
<polygon fill="none" stroke="black" points="442.46,-1558 452.46,-1554.5 442.46,-1551 442.46,-1558"/>
</g>
<!-- SIMPLE_WEB_SERVER_EXECUTION -->
<g id="node22" class="node">
<title>SIMPLE_WEB_SERVER_EXECUTION</title>
<path fill="none" stroke="black" d="M276.25,-1644.5C276.25,-1644.5 56.25,-1644.5 56.25,-1644.5 50.25,-1644.5 44.25,-1638.5 44.25,-1632.5 44.25,-1632.5 44.25,-1620.5 44.25,-1620.5 44.25,-1614.5 50.25,-1608.5 56.25,-1608.5 56.25,-1608.5 276.25,-1608.5 276.25,-1608.5 282.25,-1608.5 288.25,-1614.5 288.25,-1620.5 288.25,-1620.5 288.25,-1632.5 288.25,-1632.5 288.25,-1638.5 282.25,-1644.5 276.25,-1644.5"/>
<text xml:space="preserve" text-anchor="middle" x="166.25" y="-1621.45" font-family="Times New Roman,serif" font-size="14.00">SIMPLE_WEB_SERVER_EXECUTION</text>
</g>
<!-- WSF_EXECUTION -->
<g id="node23" class="node">
<title>WSF_EXECUTION</title>
<path fill="none" stroke="black" d="M593.38,-1644.5C593.38,-1644.5 488.88,-1644.5 488.88,-1644.5 482.88,-1644.5 476.88,-1638.5 476.88,-1632.5 476.88,-1632.5 476.88,-1620.5 476.88,-1620.5 476.88,-1614.5 482.88,-1608.5 488.88,-1608.5 488.88,-1608.5 593.38,-1608.5 593.38,-1608.5 599.38,-1608.5 605.38,-1614.5 605.38,-1620.5 605.38,-1620.5 605.38,-1632.5 605.38,-1632.5 605.38,-1638.5 599.38,-1644.5 593.38,-1644.5"/>
<text xml:space="preserve" text-anchor="middle" x="541.12" y="-1621.45" font-family="Times New Roman,serif" font-size="14.00">WSF_EXECUTION</text>
</g>
<!-- SIMPLE_WEB_SERVER_EXECUTION&#45;&gt;WSF_EXECUTION -->
<g id="edge13" class="edge">
<title>SIMPLE_WEB_SERVER_EXECUTION&#45;&gt;WSF_EXECUTION</title>
<path fill="none" stroke="black" d="M288.74,-1626.5C288.74,-1626.5 464.94,-1626.5 464.94,-1626.5"/>
<polygon fill="none" stroke="black" points="464.94,-1630 474.94,-1626.5 464.94,-1623 464.94,-1630"/>
</g>
<!-- SIMPLE_WEB_SERVER_REQUEST -->
<g id="node24" class="node">
<title>SIMPLE_WEB_SERVER_REQUEST</title>
<path fill="none" stroke="black" d="M268,-1716.5C268,-1716.5 64.5,-1716.5 64.5,-1716.5 58.5,-1716.5 52.5,-1710.5 52.5,-1704.5 52.5,-1704.5 52.5,-1692.5 52.5,-1692.5 52.5,-1686.5 58.5,-1680.5 64.5,-1680.5 64.5,-1680.5 268,-1680.5 268,-1680.5 274,-1680.5 280,-1686.5 280,-1692.5 280,-1692.5 280,-1704.5 280,-1704.5 280,-1710.5 274,-1716.5 268,-1716.5"/>
<text xml:space="preserve" text-anchor="middle" x="166.25" y="-1693.45" font-family="Times New Roman,serif" font-size="14.00">SIMPLE_WEB_SERVER_REQUEST</text>
</g>
<!-- SIMPLE_WEB_SERVER_RESPONSE -->
<g id="node25" class="node">
<title>SIMPLE_WEB_SERVER_RESPONSE</title>
<path fill="none" stroke="black" d="M271.38,-1788.5C271.38,-1788.5 61.12,-1788.5 61.12,-1788.5 55.12,-1788.5 49.13,-1782.5 49.13,-1776.5 49.13,-1776.5 49.13,-1764.5 49.13,-1764.5 49.13,-1758.5 55.13,-1752.5 61.13,-1752.5 61.13,-1752.5 271.38,-1752.5 271.38,-1752.5 277.38,-1752.5 283.38,-1758.5 283.38,-1764.5 283.38,-1764.5 283.38,-1776.5 283.38,-1776.5 283.38,-1782.5 277.38,-1788.5 271.38,-1788.5"/>
<text xml:space="preserve" text-anchor="middle" x="166.25" y="-1765.45" font-family="Times New Roman,serif" font-size="14.00">SIMPLE_WEB_SERVER_RESPONSE</text>
</g>
<!-- SIMPLE_WEB_SERVER_ROUTE -->
<g id="node26" class="node">
<title>SIMPLE_WEB_SERVER_ROUTE</title>
<path fill="none" stroke="black" d="M260.12,-1860.5C260.12,-1860.5 72.38,-1860.5 72.38,-1860.5 66.38,-1860.5 60.38,-1854.5 60.38,-1848.5 60.38,-1848.5 60.38,-1836.5 60.38,-1836.5 60.38,-1830.5 66.38,-1824.5 72.38,-1824.5 72.38,-1824.5 260.12,-1824.5 260.12,-1824.5 266.12,-1824.5 272.12,-1830.5 272.12,-1836.5 272.12,-1836.5 272.12,-1848.5 272.12,-1848.5 272.12,-1854.5 266.12,-1860.5 260.12,-1860.5"/>
<text xml:space="preserve" text-anchor="middle" x="166.25" y="-1837.45" font-family="Times New Roman,serif" font-size="14.00">SIMPLE_WEB_SERVER_ROUTE</text>
</g>
<!-- SIMPLE_WEB_SERVER_ROUTER -->
<g id="node27" class="node">
<title>SIMPLE_WEB_SERVER_ROUTER</title>
<path fill="none" stroke="black" d="M264.62,-1932.5C264.62,-1932.5 67.88,-1932.5 67.88,-1932.5 61.88,-1932.5 55.88,-1926.5 55.88,-1920.5 55.88,-1920.5 55.88,-1908.5 55.88,-1908.5 55.88,-1902.5 61.88,-1896.5 67.88,-1896.5 67.88,-1896.5 264.62,-1896.5 264.62,-1896.5 270.62,-1896.5 276.62,-1902.5 276.62,-1908.5 276.62,-1908.5 276.62,-1920.5 276.62,-1920.5 276.62,-1926.5 270.62,-1932.5 264.62,-1932.5"/>
<text xml:space="preserve" text-anchor="middle" x="166.25" y="-1909.45" font-family="Times New Roman,serif" font-size="14.00">SIMPLE_WEB_SERVER_ROUTER</text>
</g>
<!-- TODO_WEB_API_SERVER -->
<g id="node28" class="node">
<title>TODO_WEB_API_SERVER</title>
<path fill="none" stroke="black" d="M242.88,-564.5C242.88,-564.5 89.62,-564.5 89.62,-564.5 83.62,-564.5 77.62,-558.5 77.62,-552.5 77.62,-552.5 77.62,-540.5 77.62,-540.5 77.62,-534.5 83.62,-528.5 89.62,-528.5 89.62,-528.5 242.88,-528.5 242.88,-528.5 248.88,-528.5 254.88,-534.5 254.88,-540.5 254.88,-540.5 254.88,-552.5 254.88,-552.5 254.88,-558.5 248.88,-564.5 242.88,-564.5"/>
<text xml:space="preserve" text-anchor="middle" x="166.25" y="-541.45" font-family="Times New Roman,serif" font-size="14.00">TODO_WEB_API_SERVER</text>
</g>
<!-- TODO_WEB_API_SERVER&#45;&gt;ANY -->
<g id="edge14" class="edge">
<title>TODO_WEB_API_SERVER&#45;&gt;ANY</title>
<path fill="none" stroke="black" d="M255.09,-546.5C255.09,-546.5 502.19,-546.5 502.19,-546.5"/>
<polygon fill="none" stroke="black" points="502.19,-550 512.19,-546.5 502.19,-543 502.19,-550"/>
</g>
<!-- TODO_WEB_API_SERVER&#45;&gt;ANY -->
<g id="edge34" class="edge">
<title>TODO_WEB_API_SERVER&#45;&gt;ANY</title>
<path fill="none" stroke="black" d="M255.09,-537.5C255.09,-537.5 502.19,-537.5 502.19,-537.5"/>
<polygon fill="none" stroke="black" points="502.19,-541 512.19,-537.5 502.19,-534 502.19,-541"/>
</g>
<!-- TEST_SIMPLE_WEB_OLLAMA -->
<g id="node29" class="node">
<title>TEST_SIMPLE_WEB_OLLAMA</title>
<path fill="none" stroke="black" d="M257.5,-2868.5C257.5,-2868.5 75,-2868.5 75,-2868.5 69,-2868.5 63,-2862.5 63,-2856.5 63,-2856.5 63,-2844.5 63,-2844.5 63,-2838.5 69,-2832.5 75,-2832.5 75,-2832.5 257.5,-2832.5 257.5,-2832.5 263.5,-2832.5 269.5,-2838.5 269.5,-2844.5 269.5,-2844.5 269.5,-2856.5 269.5,-2856.5 269.5,-2862.5 263.5,-2868.5 257.5,-2868.5"/>
<text xml:space="preserve" text-anchor="middle" x="166.25" y="-2845.45" font-family="Times New Roman,serif" font-size="14.00">TEST_SIMPLE_WEB_OLLAMA</text>
</g>
<!-- TEST_SET_BASE -->
<g id="node30" class="node">
<title>TEST_SET_BASE</title>
<path fill="none" stroke="black" d="M589.25,-2364.5C589.25,-2364.5 493,-2364.5 493,-2364.5 487,-2364.5 481,-2358.5 481,-2352.5 481,-2352.5 481,-2340.5 481,-2340.5 481,-2334.5 487,-2328.5 493,-2328.5 493,-2328.5 589.25,-2328.5 589.25,-2328.5 595.25,-2328.5 601.25,-2334.5 601.25,-2340.5 601.25,-2340.5 601.25,-2352.5 601.25,-2352.5 601.25,-2358.5 595.25,-2364.5 589.25,-2364.5"/>
<text xml:space="preserve" text-anchor="middle" x="541.12" y="-2341.45" font-family="Times New Roman,serif" font-size="14.00">TEST_SET_BASE</text>
</g>
<!-- TEST_SIMPLE_WEB_OLLAMA&#45;&gt;TEST_SET_BASE -->
<g id="edge15" class="edge">
<title>TEST_SIMPLE_WEB_OLLAMA&#45;&gt;TEST_SET_BASE</title>
<path fill="none" stroke="black" d="M269.89,-2850.5C386.48,-2850.5 559.75,-2850.5 559.75,-2850.5 559.75,-2850.5 559.75,-2376.25 559.75,-2376.25"/>
<polygon fill="none" stroke="black" points="563.25,-2376.25 559.75,-2366.25 556.25,-2376.25 563.25,-2376.25"/>
</g>
<!-- TEST_HYBRID_CLIENT -->
<g id="node31" class="node">
<title>TEST_HYBRID_CLIENT</title>
<path fill="none" stroke="black" d="M235,-2796.5C235,-2796.5 97.5,-2796.5 97.5,-2796.5 91.5,-2796.5 85.5,-2790.5 85.5,-2784.5 85.5,-2784.5 85.5,-2772.5 85.5,-2772.5 85.5,-2766.5 91.5,-2760.5 97.5,-2760.5 97.5,-2760.5 235,-2760.5 235,-2760.5 241,-2760.5 247,-2766.5 247,-2772.5 247,-2772.5 247,-2784.5 247,-2784.5 247,-2790.5 241,-2796.5 235,-2796.5"/>
<text xml:space="preserve" text-anchor="middle" x="166.25" y="-2773.45" font-family="Times New Roman,serif" font-size="14.00">TEST_HYBRID_CLIENT</text>
</g>
<!-- TEST_HYBRID_CLIENT&#45;&gt;TEST_SET_BASE -->
<g id="edge16" class="edge">
<title>TEST_HYBRID_CLIENT&#45;&gt;TEST_SET_BASE</title>
<path fill="none" stroke="black" d="M247.05,-2778.5C357.14,-2778.5 540.75,-2778.5 540.75,-2778.5 540.75,-2778.5 540.75,-2376.3 540.75,-2376.3"/>
<polygon fill="none" stroke="black" points="544.25,-2376.3 540.75,-2366.3 537.25,-2376.3 544.25,-2376.3"/>
</g>
<!-- TEST_SIMPLE_WEB_CLIENT_INTEGRATION -->
<g id="node32" class="node">
<title>TEST_SIMPLE_WEB_CLIENT_INTEGRATION</title>
<path fill="none" stroke="black" d="M300.62,-2724.5C300.62,-2724.5 31.88,-2724.5 31.88,-2724.5 25.88,-2724.5 19.88,-2718.5 19.88,-2712.5 19.88,-2712.5 19.88,-2700.5 19.88,-2700.5 19.88,-2694.5 25.88,-2688.5 31.88,-2688.5 31.88,-2688.5 300.62,-2688.5 300.62,-2688.5 306.62,-2688.5 312.62,-2694.5 312.62,-2700.5 312.62,-2700.5 312.62,-2712.5 312.62,-2712.5 312.62,-2718.5 306.62,-2724.5 300.62,-2724.5"/>
<text xml:space="preserve" text-anchor="middle" x="166.25" y="-2701.45" font-family="Times New Roman,serif" font-size="14.00">TEST_SIMPLE_WEB_CLIENT_INTEGRATION</text>
</g>
<!-- TEST_SIMPLE_WEB_CLIENT_INTEGRATION&#45;&gt;TEST_SET_BASE -->
<g id="edge17" class="edge">
<title>TEST_SIMPLE_WEB_CLIENT_INTEGRATION&#45;&gt;TEST_SET_BASE</title>
<path fill="none" stroke="black" d="M312.9,-2706.5C410.82,-2706.5 521.75,-2706.5 521.75,-2706.5 521.75,-2706.5 521.75,-2376.36 521.75,-2376.36"/>
<polygon fill="none" stroke="black" points="525.25,-2376.36 521.75,-2366.36 518.25,-2376.36 525.25,-2376.36"/>
</g>
<!-- TEST_SIMPLE_WEB_CLIENT_JSONPLACEHOLDER -->
<g id="node33" class="node">
<title>TEST_SIMPLE_WEB_CLIENT_JSONPLACEHOLDER</title>
<path fill="none" stroke="black" d="M320.5,-2652.5C320.5,-2652.5 12,-2652.5 12,-2652.5 6,-2652.5 0,-2646.5 0,-2640.5 0,-2640.5 0,-2628.5 0,-2628.5 0,-2622.5 6,-2616.5 12,-2616.5 12,-2616.5 320.5,-2616.5 320.5,-2616.5 326.5,-2616.5 332.5,-2622.5 332.5,-2628.5 332.5,-2628.5 332.5,-2640.5 332.5,-2640.5 332.5,-2646.5 326.5,-2652.5 320.5,-2652.5"/>
<text xml:space="preserve" text-anchor="middle" x="166.25" y="-2629.45" font-family="Times New Roman,serif" font-size="14.00">TEST_SIMPLE_WEB_CLIENT_JSONPLACEHOLDER</text>
</g>
<!-- TEST_SIMPLE_WEB_CLIENT_JSONPLACEHOLDER&#45;&gt;TEST_SET_BASE -->
<g id="edge18" class="edge">
<title>TEST_SIMPLE_WEB_CLIENT_JSONPLACEHOLDER&#45;&gt;TEST_SET_BASE</title>
<path fill="none" stroke="black" d="M320.75,-2616.39C320.75,-2554.99 320.75,-2358.5 320.75,-2358.5 320.75,-2358.5 469.1,-2358.5 469.1,-2358.5"/>
<polygon fill="none" stroke="black" points="469.1,-2362 479.1,-2358.5 469.1,-2355 469.1,-2362"/>
</g>
<!-- TEST_SIMPLE_WEB_CLIENT_ECHO -->
<g id="node34" class="node">
<title>TEST_SIMPLE_WEB_CLIENT_ECHO</title>
<path fill="none" stroke="black" d="M274,-2580.5C274,-2580.5 58.5,-2580.5 58.5,-2580.5 52.5,-2580.5 46.5,-2574.5 46.5,-2568.5 46.5,-2568.5 46.5,-2556.5 46.5,-2556.5 46.5,-2550.5 52.5,-2544.5 58.5,-2544.5 58.5,-2544.5 274,-2544.5 274,-2544.5 280,-2544.5 286,-2550.5 286,-2556.5 286,-2556.5 286,-2568.5 286,-2568.5 286,-2574.5 280,-2580.5 274,-2580.5"/>
<text xml:space="preserve" text-anchor="middle" x="166.25" y="-2557.45" font-family="Times New Roman,serif" font-size="14.00">TEST_SIMPLE_WEB_CLIENT_ECHO</text>
</g>
<!-- TEST_SIMPLE_WEB_CLIENT_ECHO&#45;&gt;TEST_SET_BASE -->
<g id="edge19" class="edge">
<title>TEST_SIMPLE_WEB_CLIENT_ECHO&#45;&gt;TEST_SET_BASE</title>
<path fill="none" stroke="black" d="M254.75,-2544.23C254.75,-2493.14 254.75,-2352.5 254.75,-2352.5 254.75,-2352.5 469.23,-2352.5 469.23,-2352.5"/>
<polygon fill="none" stroke="black" points="469.23,-2356 479.23,-2352.5 469.23,-2349 469.23,-2356"/>
</g>
<!-- TEST_SIMPLE_WEB_REQUEST -->
<g id="node35" class="node">
<title>TEST_SIMPLE_WEB_REQUEST</title>
<path fill="none" stroke="black" d="M258.62,-3012.5C258.62,-3012.5 73.88,-3012.5 73.88,-3012.5 67.88,-3012.5 61.88,-3006.5 61.88,-3000.5 61.88,-3000.5 61.88,-2988.5 61.88,-2988.5 61.88,-2982.5 67.88,-2976.5 73.88,-2976.5 73.88,-2976.5 258.62,-2976.5 258.62,-2976.5 264.62,-2976.5 270.62,-2982.5 270.62,-2988.5 270.62,-2988.5 270.62,-3000.5 270.62,-3000.5 270.62,-3006.5 264.62,-3012.5 258.62,-3012.5"/>
<text xml:space="preserve" text-anchor="middle" x="166.25" y="-2989.45" font-family="Times New Roman,serif" font-size="14.00">TEST_SIMPLE_WEB_REQUEST</text>
</g>
<!-- EQA_TEST_SET -->
<g id="node36" class="node">
<title>EQA_TEST_SET</title>
<path fill="none" stroke="black" d="M585.88,-2976.5C585.88,-2976.5 496.38,-2976.5 496.38,-2976.5 490.38,-2976.5 484.38,-2970.5 484.38,-2964.5 484.38,-2964.5 484.38,-2952.5 484.38,-2952.5 484.38,-2946.5 490.38,-2940.5 496.38,-2940.5 496.38,-2940.5 585.88,-2940.5 585.88,-2940.5 591.88,-2940.5 597.88,-2946.5 597.88,-2952.5 597.88,-2952.5 597.88,-2964.5 597.88,-2964.5 597.88,-2970.5 591.88,-2976.5 585.88,-2976.5"/>
<text xml:space="preserve" text-anchor="middle" x="541.12" y="-2953.45" font-family="Times New Roman,serif" font-size="14.00">EQA_TEST_SET</text>
</g>
<!-- TEST_SIMPLE_WEB_REQUEST&#45;&gt;EQA_TEST_SET -->
<g id="edge20" class="edge">
<title>TEST_SIMPLE_WEB_REQUEST&#45;&gt;EQA_TEST_SET</title>
<path fill="none" stroke="black" d="M271.07,-2994.5C381.86,-2994.5 540.75,-2994.5 540.75,-2994.5 540.75,-2994.5 540.75,-2988.44 540.75,-2988.44"/>
<polygon fill="none" stroke="black" points="544.25,-2988.44 540.75,-2978.44 537.25,-2988.44 544.25,-2988.44"/>
</g>
<!-- TEST_SIMPLE_WEB_RESPONSE -->
<g id="node37" class="node">
<title>TEST_SIMPLE_WEB_RESPONSE</title>
<path fill="none" stroke="black" d="M262,-2940.5C262,-2940.5 70.5,-2940.5 70.5,-2940.5 64.5,-2940.5 58.5,-2934.5 58.5,-2928.5 58.5,-2928.5 58.5,-2916.5 58.5,-2916.5 58.5,-2910.5 64.5,-2904.5 70.5,-2904.5 70.5,-2904.5 262,-2904.5 262,-2904.5 268,-2904.5 274,-2910.5 274,-2916.5 274,-2916.5 274,-2928.5 274,-2928.5 274,-2934.5 268,-2940.5 262,-2940.5"/>
<text xml:space="preserve" text-anchor="middle" x="166.25" y="-2917.45" font-family="Times New Roman,serif" font-size="14.00">TEST_SIMPLE_WEB_RESPONSE</text>
</g>
<!-- TEST_SIMPLE_WEB_RESPONSE&#45;&gt;EQA_TEST_SET -->
<g id="edge21" class="edge">
<title>TEST_SIMPLE_WEB_RESPONSE&#45;&gt;EQA_TEST_SET</title>
<path fill="none" stroke="black" d="M274.36,-2922.5C396.58,-2922.5 578.75,-2922.5 578.75,-2922.5 578.75,-2922.5 578.75,-2928.56 578.75,-2928.56"/>
<polygon fill="none" stroke="black" points="575.25,-2928.56 578.75,-2938.56 582.25,-2928.56 575.25,-2928.56"/>
</g>
<!-- LIB_TESTS -->
<g id="node38" class="node">
<title>LIB_TESTS</title>
<path fill="none" stroke="black" d="M196.38,-2508.5C196.38,-2508.5 136.12,-2508.5 136.12,-2508.5 130.12,-2508.5 124.12,-2502.5 124.12,-2496.5 124.12,-2496.5 124.12,-2484.5 124.12,-2484.5 124.12,-2478.5 130.12,-2472.5 136.12,-2472.5 136.12,-2472.5 196.38,-2472.5 196.38,-2472.5 202.38,-2472.5 208.38,-2478.5 208.38,-2484.5 208.38,-2484.5 208.38,-2496.5 208.38,-2496.5 208.38,-2502.5 202.38,-2508.5 196.38,-2508.5"/>
<text xml:space="preserve" text-anchor="middle" x="166.25" y="-2485.45" font-family="Times New Roman,serif" font-size="14.00">LIB_TESTS</text>
</g>
<!-- LIB_TESTS&#45;&gt;TEST_SET_BASE -->
<g id="edge22" class="edge">
<title>LIB_TESTS&#45;&gt;TEST_SET_BASE</title>
<path fill="none" stroke="black" d="M208.65,-2490.5C299.3,-2490.5 503.75,-2490.5 503.75,-2490.5 503.75,-2490.5 503.75,-2376.25 503.75,-2376.25"/>
<polygon fill="none" stroke="black" points="507.25,-2376.25 503.75,-2366.25 500.25,-2376.25 507.25,-2376.25"/>
</g>
<!-- TEST_BLOCKING_MIDDLEWARE -->
<g id="node39" class="node">
<title>TEST_BLOCKING_MIDDLEWARE</title>
<path fill="none" stroke="black" d="M266.12,-1068.5C266.12,-1068.5 66.38,-1068.5 66.38,-1068.5 60.38,-1068.5 54.38,-1062.5 54.38,-1056.5 54.38,-1056.5 54.38,-1044.5 54.38,-1044.5 54.38,-1038.5 60.38,-1032.5 66.38,-1032.5 66.38,-1032.5 266.12,-1032.5 266.12,-1032.5 272.12,-1032.5 278.12,-1038.5 278.12,-1044.5 278.12,-1044.5 278.12,-1056.5 278.12,-1056.5 278.12,-1062.5 272.12,-1068.5 266.12,-1068.5"/>
<text xml:space="preserve" text-anchor="middle" x="166.25" y="-1045.45" font-family="Times New Roman,serif" font-size="14.00">TEST_BLOCKING_MIDDLEWARE</text>
</g>
<!-- TEST_BLOCKING_MIDDLEWARE&#45;&gt;SIMPLE_WEB_MIDDLEWARE -->
<g id="edge23" class="edge">
<title>TEST_BLOCKING_MIDDLEWARE&#45;&gt;SIMPLE_WEB_MIDDLEWARE</title>
<path fill="none" stroke="black" d="M278.5,-1050.5C360.99,-1050.5 458.75,-1050.5 458.75,-1050.5 458.75,-1050.5 458.75,-1092.82 458.75,-1092.82"/>
<polygon fill="none" stroke="black" points="455.25,-1092.82 458.75,-1102.82 462.25,-1092.82 455.25,-1092.82"/>
</g>
<!-- TEST_COUNTING_MIDDLEWARE -->
<g id="node40" class="node">
<title>TEST_COUNTING_MIDDLEWARE</title>
<path fill="none" stroke="black" d="M266.5,-996.5C266.5,-996.5 66,-996.5 66,-996.5 60,-996.5 54,-990.5 54,-984.5 54,-984.5 54,-972.5 54,-972.5 54,-966.5 60,-960.5 66,-960.5 66,-960.5 266.5,-960.5 266.5,-960.5 272.5,-960.5 278.5,-966.5 278.5,-972.5 278.5,-972.5 278.5,-984.5 278.5,-984.5 278.5,-990.5 272.5,-996.5 266.5,-996.5"/>
<text xml:space="preserve" text-anchor="middle" x="166.25" y="-973.45" font-family="Times New Roman,serif" font-size="14.00">TEST_COUNTING_MIDDLEWARE</text>
</g>
<!-- TEST_COUNTING_MIDDLEWARE&#45;&gt;SIMPLE_WEB_MIDDLEWARE -->
<g id="edge24" class="edge">
<title>TEST_COUNTING_MIDDLEWARE&#45;&gt;SIMPLE_WEB_MIDDLEWARE</title>
<path fill="none" stroke="black" d="M278.83,-978.5C365.2,-978.5 469.75,-978.5 469.75,-978.5 469.75,-978.5 469.75,-1092.75 469.75,-1092.75"/>
<polygon fill="none" stroke="black" points="466.25,-1092.75 469.75,-1102.75 473.25,-1092.75 466.25,-1092.75"/>
</g>
<!-- TEST_MIDDLEWARE -->
<g id="node41" class="node">
<title>TEST_MIDDLEWARE</title>
<path fill="none" stroke="black" d="M227.88,-2436.5C227.88,-2436.5 104.62,-2436.5 104.62,-2436.5 98.62,-2436.5 92.62,-2430.5 92.62,-2424.5 92.62,-2424.5 92.62,-2412.5 92.62,-2412.5 92.62,-2406.5 98.62,-2400.5 104.62,-2400.5 104.62,-2400.5 227.88,-2400.5 227.88,-2400.5 233.88,-2400.5 239.88,-2406.5 239.88,-2412.5 239.88,-2412.5 239.88,-2424.5 239.88,-2424.5 239.88,-2430.5 233.88,-2436.5 227.88,-2436.5"/>
<text xml:space="preserve" text-anchor="middle" x="166.25" y="-2413.45" font-family="Times New Roman,serif" font-size="14.00">TEST_MIDDLEWARE</text>
</g>
<!-- TEST_MIDDLEWARE&#45;&gt;TEST_SET_BASE -->
<g id="edge25" class="edge">
<title>TEST_MIDDLEWARE&#45;&gt;TEST_SET_BASE</title>
<path fill="none" stroke="black" d="M233.75,-2400.33C233.75,-2379 233.75,-2346.5 233.75,-2346.5 233.75,-2346.5 469.25,-2346.5 469.25,-2346.5"/>
<polygon fill="none" stroke="black" points="469.25,-2350 479.25,-2346.5 469.25,-2343 469.25,-2350"/>
</g>
<!-- TEST_ORDER_MIDDLEWARE -->
<g id="node42" class="node">
<title>TEST_ORDER_MIDDLEWARE</title>
<path fill="none" stroke="black" d="M254.12,-924.5C254.12,-924.5 78.38,-924.5 78.38,-924.5 72.38,-924.5 66.38,-918.5 66.38,-912.5 66.38,-912.5 66.38,-900.5 66.38,-900.5 66.38,-894.5 72.38,-888.5 78.38,-888.5 78.38,-888.5 254.12,-888.5 254.12,-888.5 260.12,-888.5 266.12,-894.5 266.12,-900.5 266.12,-900.5 266.12,-912.5 266.12,-912.5 266.12,-918.5 260.12,-924.5 254.12,-924.5"/>
<text xml:space="preserve" text-anchor="middle" x="166.25" y="-901.45" font-family="Times New Roman,serif" font-size="14.00">TEST_ORDER_MIDDLEWARE</text>
</g>
<!-- TEST_ORDER_MIDDLEWARE&#45;&gt;SIMPLE_WEB_MIDDLEWARE -->
<g id="edge26" class="edge">
<title>TEST_ORDER_MIDDLEWARE&#45;&gt;SIMPLE_WEB_MIDDLEWARE</title>
<path fill="none" stroke="black" d="M266.62,-906.5C358.67,-906.5 480.75,-906.5 480.75,-906.5 480.75,-906.5 480.75,-1092.57 480.75,-1092.57"/>
<polygon fill="none" stroke="black" points="477.25,-1092.57 480.75,-1102.57 484.25,-1092.57 477.25,-1092.57"/>
</g>
<!-- TEST_SANITIZER -->
<g id="node43" class="node">
<title>TEST_SANITIZER</title>
<path fill="none" stroke="black" d="M216.62,-2364.5C216.62,-2364.5 115.88,-2364.5 115.88,-2364.5 109.88,-2364.5 103.88,-2358.5 103.88,-2352.5 103.88,-2352.5 103.88,-2340.5 103.88,-2340.5 103.88,-2334.5 109.88,-2328.5 115.88,-2328.5 115.88,-2328.5 216.62,-2328.5 216.62,-2328.5 222.62,-2328.5 228.62,-2334.5 228.62,-2340.5 228.62,-2340.5 228.62,-2352.5 228.62,-2352.5 228.62,-2358.5 222.62,-2364.5 216.62,-2364.5"/>
<text xml:space="preserve" text-anchor="middle" x="166.25" y="-2341.45" font-family="Times New Roman,serif" font-size="14.00">TEST_SANITIZER</text>
</g>
<!-- TEST_SANITIZER&#45;&gt;TEST_SET_BASE -->
<g id="edge27" class="edge">
<title>TEST_SANITIZER&#45;&gt;TEST_SET_BASE</title>
<path fill="none" stroke="black" d="M229,-2340.5C229,-2340.5 469.15,-2340.5 469.15,-2340.5"/>
<polygon fill="none" stroke="black" points="469.15,-2344 479.15,-2340.5 469.15,-2337 469.15,-2344"/>
</g>
<!-- TEST_SIMPLE_WEB_SERVER_ROUTE -->
<g id="node44" class="node">
<title>TEST_SIMPLE_WEB_SERVER_ROUTE</title>
<path fill="none" stroke="black" d="M279.62,-2292.5C279.62,-2292.5 52.88,-2292.5 52.88,-2292.5 46.88,-2292.5 40.88,-2286.5 40.88,-2280.5 40.88,-2280.5 40.88,-2268.5 40.88,-2268.5 40.88,-2262.5 46.88,-2256.5 52.88,-2256.5 52.88,-2256.5 279.62,-2256.5 279.62,-2256.5 285.62,-2256.5 291.62,-2262.5 291.62,-2268.5 291.62,-2268.5 291.62,-2280.5 291.62,-2280.5 291.62,-2286.5 285.62,-2292.5 279.62,-2292.5"/>
<text xml:space="preserve" text-anchor="middle" x="166.25" y="-2269.45" font-family="Times New Roman,serif" font-size="14.00">TEST_SIMPLE_WEB_SERVER_ROUTE</text>
</g>
<!-- TEST_SIMPLE_WEB_SERVER_ROUTE&#45;&gt;TEST_SET_BASE -->
<g id="edge28" class="edge">
<title>TEST_SIMPLE_WEB_SERVER_ROUTE&#45;&gt;TEST_SET_BASE</title>
<path fill="none" stroke="black" d="M270.75,-2292.83C270.75,-2310.47 270.75,-2334.5 270.75,-2334.5 270.75,-2334.5 469.27,-2334.5 469.27,-2334.5"/>
<polygon fill="none" stroke="black" points="469.27,-2338 479.27,-2334.5 469.27,-2331 469.27,-2338"/>
</g>
<!-- TEST_SIMPLE_WEB_SERVER_ROUTER -->
<g id="node45" class="node">
<title>TEST_SIMPLE_WEB_SERVER_ROUTER</title>
<path fill="none" stroke="black" d="M284.12,-2220.5C284.12,-2220.5 48.38,-2220.5 48.38,-2220.5 42.38,-2220.5 36.38,-2214.5 36.38,-2208.5 36.38,-2208.5 36.38,-2196.5 36.38,-2196.5 36.38,-2190.5 42.38,-2184.5 48.38,-2184.5 48.38,-2184.5 284.12,-2184.5 284.12,-2184.5 290.12,-2184.5 296.12,-2190.5 296.12,-2196.5 296.12,-2196.5 296.12,-2208.5 296.12,-2208.5 296.12,-2214.5 290.12,-2220.5 284.12,-2220.5"/>
<text xml:space="preserve" text-anchor="middle" x="166.25" y="-2197.45" font-family="Times New Roman,serif" font-size="14.00">TEST_SIMPLE_WEB_SERVER_ROUTER</text>
</g>
<!-- TEST_SIMPLE_WEB_SERVER_ROUTER&#45;&gt;TEST_SET_BASE -->
<g id="edge29" class="edge">
<title>TEST_SIMPLE_WEB_SERVER_ROUTER&#45;&gt;TEST_SET_BASE</title>
<path fill="none" stroke="black" d="M296.32,-2202.5C389.19,-2202.5 497.75,-2202.5 497.75,-2202.5 497.75,-2202.5 497.75,-2316.75 497.75,-2316.75"/>
<polygon fill="none" stroke="black" points="494.25,-2316.75 497.75,-2326.75 501.25,-2316.75 494.25,-2316.75"/>
</g>
<!-- TEST_APP -->
<g id="node46" class="node">
<title>TEST_APP</title>
<path fill="none" stroke="black" d="M194.12,-3084.5C194.12,-3084.5 138.38,-3084.5 138.38,-3084.5 132.38,-3084.5 126.38,-3078.5 126.38,-3072.5 126.38,-3072.5 126.38,-3060.5 126.38,-3060.5 126.38,-3054.5 132.38,-3048.5 138.38,-3048.5 138.38,-3048.5 194.12,-3048.5 194.12,-3048.5 200.12,-3048.5 206.12,-3054.5 206.12,-3060.5 206.12,-3060.5 206.12,-3072.5 206.12,-3072.5 206.12,-3078.5 200.12,-3084.5 194.12,-3084.5"/>
<text xml:space="preserve" text-anchor="middle" x="166.25" y="-3061.45" font-family="Times New Roman,serif" font-size="14.00">TEST_APP</text>
</g>
<!-- TEST_RESILIENCE -->
<g id="node47" class="node">
<title>TEST_RESILIENCE</title>
<path fill="none" stroke="black" d="M220.38,-2148.5C220.38,-2148.5 112.12,-2148.5 112.12,-2148.5 106.12,-2148.5 100.12,-2142.5 100.12,-2136.5 100.12,-2136.5 100.12,-2124.5 100.12,-2124.5 100.12,-2118.5 106.12,-2112.5 112.12,-2112.5 112.12,-2112.5 220.38,-2112.5 220.38,-2112.5 226.38,-2112.5 232.38,-2118.5 232.38,-2124.5 232.38,-2124.5 232.38,-2136.5 232.38,-2136.5 232.38,-2142.5 226.38,-2148.5 220.38,-2148.5"/>
<text xml:space="preserve" text-anchor="middle" x="166.25" y="-2125.45" font-family="Times New Roman,serif" font-size="14.00">TEST_RESILIENCE</text>
</g>
<!-- TEST_RESILIENCE&#45;&gt;TEST_SET_BASE -->
<g id="edge30" class="edge">
<title>TEST_RESILIENCE&#45;&gt;TEST_SET_BASE</title>
<path fill="none" stroke="black" d="M232.81,-2130.5C334.22,-2130.5 515.75,-2130.5 515.75,-2130.5 515.75,-2130.5 515.75,-2316.57 515.75,-2316.57"/>
<polygon fill="none" stroke="black" points="512.25,-2316.57 515.75,-2326.57 519.25,-2316.57 512.25,-2316.57"/>
</g>
<!-- TEST_TODO_API -->
<g id="node48" class="node">
<title>TEST_TODO_API</title>
<path fill="none" stroke="black" d="M214.75,-2076.5C214.75,-2076.5 117.75,-2076.5 117.75,-2076.5 111.75,-2076.5 105.75,-2070.5 105.75,-2064.5 105.75,-2064.5 105.75,-2052.5 105.75,-2052.5 105.75,-2046.5 111.75,-2040.5 117.75,-2040.5 117.75,-2040.5 214.75,-2040.5 214.75,-2040.5 220.75,-2040.5 226.75,-2046.5 226.75,-2052.5 226.75,-2052.5 226.75,-2064.5 226.75,-2064.5 226.75,-2070.5 220.75,-2076.5 214.75,-2076.5"/>
<text xml:space="preserve" text-anchor="middle" x="166.25" y="-2053.45" font-family="Times New Roman,serif" font-size="14.00">TEST_TODO_API</text>
</g>
<!-- TEST_TODO_API&#45;&gt;TEST_SET_BASE -->
<g id="edge31" class="edge">
<title>TEST_TODO_API&#45;&gt;TEST_SET_BASE</title>
<path fill="none" stroke="black" d="M227.18,-2064.5C331.4,-2064.5 532.75,-2064.5 532.75,-2064.5 532.75,-2064.5 532.75,-2316.92 532.75,-2316.92"/>
<polygon fill="none" stroke="black" points="529.25,-2316.92 532.75,-2326.92 536.25,-2316.92 529.25,-2316.92"/>
</g>
<!-- TEST_TODO_API&#45;&gt;TEST_SET_BASE -->
<g id="edge37" class="edge">
<title>TEST_TODO_API&#45;&gt;TEST_SET_BASE</title>
<path fill="none" stroke="black" d="M227.02,-2052.5C335.15,-2052.5 549.75,-2052.5 549.75,-2052.5 549.75,-2052.5 549.75,-2316.6 549.75,-2316.6"/>
<polygon fill="none" stroke="black" points="546.25,-2316.6 549.75,-2326.6 553.25,-2316.6 546.25,-2316.6"/>
</g>
<!-- TEST_WMS_API -->
<g id="node49" class="node">
<title>TEST_WMS_API</title>
<path fill="none" stroke="black" d="M212.88,-2004.5C212.88,-2004.5 119.62,-2004.5 119.62,-2004.5 113.62,-2004.5 107.62,-1998.5 107.62,-1992.5 107.62,-1992.5 107.62,-1980.5 107.62,-1980.5 107.62,-1974.5 113.62,-1968.5 119.62,-1968.5 119.62,-1968.5 212.88,-1968.5 212.88,-1968.5 218.88,-1968.5 224.88,-1974.5 224.88,-1980.5 224.88,-1980.5 224.88,-1992.5 224.88,-1992.5 224.88,-1998.5 218.88,-2004.5 212.88,-2004.5"/>
<text xml:space="preserve" text-anchor="middle" x="166.25" y="-1981.45" font-family="Times New Roman,serif" font-size="14.00">TEST_WMS_API</text>
</g>
<!-- TEST_WMS_API&#45;&gt;TEST_SET_BASE -->
<g id="edge32" class="edge">
<title>TEST_WMS_API&#45;&gt;TEST_SET_BASE</title>
<path fill="none" stroke="black" d="M225.35,-1992.5C336.75,-1992.5 566.75,-1992.5 566.75,-1992.5 566.75,-1992.5 566.75,-2316.94 566.75,-2316.94"/>
<polygon fill="none" stroke="black" points="563.25,-2316.94 566.75,-2326.94 570.25,-2316.94 563.25,-2316.94"/>
</g>
<!-- TEST_WMS_API&#45;&gt;TEST_SET_BASE -->
<g id="edge33" class="edge">
<title>TEST_WMS_API&#45;&gt;TEST_SET_BASE</title>
<path fill="none" stroke="black" d="M225.18,-1980.5C340.27,-1980.5 583.75,-1980.5 583.75,-1980.5 583.75,-1980.5 583.75,-2316.59 583.75,-2316.59"/>
<polygon fill="none" stroke="black" points="580.25,-2316.59 583.75,-2326.59 587.25,-2316.59 580.25,-2316.59"/>
</g>
<!-- WMS_API_APP -->
<g id="node50" class="node">
<title>WMS_API_APP</title>
<path fill="none" stroke="black" d="M209.12,-3156.5C209.12,-3156.5 123.38,-3156.5 123.38,-3156.5 117.38,-3156.5 111.38,-3150.5 111.38,-3144.5 111.38,-3144.5 111.38,-3132.5 111.38,-3132.5 111.38,-3126.5 117.38,-3120.5 123.38,-3120.5 123.38,-3120.5 209.12,-3120.5 209.12,-3120.5 215.12,-3120.5 221.12,-3126.5 221.12,-3132.5 221.12,-3132.5 221.12,-3144.5 221.12,-3144.5 221.12,-3150.5 215.12,-3156.5 209.12,-3156.5"/>
<text xml:space="preserve" text-anchor="middle" x="166.25" y="-3133.45" font-family="Times New Roman,serif" font-size="14.00">WMS_API_APP</text>
</g>
<!-- WMS_PROFILE_APP -->
<g id="node51" class="node">
<title>WMS_PROFILE_APP</title>
<path fill="none" stroke="black" d="M225.62,-3228.5C225.62,-3228.5 106.88,-3228.5 106.88,-3228.5 100.88,-3228.5 94.88,-3222.5 94.88,-3216.5 94.88,-3216.5 94.88,-3204.5 94.88,-3204.5 94.88,-3198.5 100.88,-3192.5 106.88,-3192.5 106.88,-3192.5 225.62,-3192.5 225.62,-3192.5 231.62,-3192.5 237.62,-3198.5 237.62,-3204.5 237.62,-3204.5 237.62,-3216.5 237.62,-3216.5 237.62,-3222.5 231.62,-3228.5 225.62,-3228.5"/>
<text xml:space="preserve" text-anchor="middle" x="166.25" y="-3205.45" font-family="Times New Roman,serif" font-size="14.00">WMS_PROFILE_APP</text>
</g>
<!-- WMS_APP -->
<g id="node52" class="node">
<title>WMS_APP</title>
<path fill="none" stroke="black" d="M194.88,-3300.5C194.88,-3300.5 137.62,-3300.5 137.62,-3300.5 131.62,-3300.5 125.62,-3294.5 125.62,-3288.5 125.62,-3288.5 125.62,-3276.5 125.62,-3276.5 125.62,-3270.5 131.62,-3264.5 137.62,-3264.5 137.62,-3264.5 194.88,-3264.5 194.88,-3264.5 200.88,-3264.5 206.88,-3270.5 206.88,-3276.5 206.88,-3276.5 206.88,-3288.5 206.88,-3288.5 206.88,-3294.5 200.88,-3300.5 194.88,-3300.5"/>
<text xml:space="preserve" text-anchor="middle" x="166.25" y="-3277.45" font-family="Times New Roman,serif" font-size="14.00">WMS_APP</text>
</g>
<!-- WMS_LOCATION -->
<g id="node53" class="node">
<title>WMS_LOCATION</title>
<path fill="none" stroke="black" d="M216.25,-3372.5C216.25,-3372.5 116.25,-3372.5 116.25,-3372.5 110.25,-3372.5 104.25,-3366.5 104.25,-3360.5 104.25,-3360.5 104.25,-3348.5 104.25,-3348.5 104.25,-3342.5 110.25,-3336.5 116.25,-3336.5 116.25,-3336.5 216.25,-3336.5 216.25,-3336.5 222.25,-3336.5 228.25,-3342.5 228.25,-3348.5 228.25,-3348.5 228.25,-3360.5 228.25,-3360.5 228.25,-3366.5 222.25,-3372.5 216.25,-3372.5"/>
<text xml:space="preserve" text-anchor="middle" x="166.25" y="-3349.45" font-family="Times New Roman,serif" font-size="14.00">WMS_LOCATION</text>
</g>
<!-- WMS_MOVEMENT -->
<g id="node54" class="node">
<title>WMS_MOVEMENT</title>
<path fill="none" stroke="black" d="M222.25,-3444.5C222.25,-3444.5 110.25,-3444.5 110.25,-3444.5 104.25,-3444.5 98.25,-3438.5 98.25,-3432.5 98.25,-3432.5 98.25,-3420.5 98.25,-3420.5 98.25,-3414.5 104.25,-3408.5 110.25,-3408.5 110.25,-3408.5 222.25,-3408.5 222.25,-3408.5 228.25,-3408.5 234.25,-3414.5 234.25,-3420.5 234.25,-3420.5 234.25,-3432.5 234.25,-3432.5 234.25,-3438.5 228.25,-3444.5 222.25,-3444.5"/>
<text xml:space="preserve" text-anchor="middle" x="166.25" y="-3421.45" font-family="Times New Roman,serif" font-size="14.00">WMS_MOVEMENT</text>
</g>
<!-- WMS_PRODUCT -->
<g id="node55" class="node">
<title>WMS_PRODUCT</title>
<path fill="none" stroke="black" d="M214,-3516.5C214,-3516.5 118.5,-3516.5 118.5,-3516.5 112.5,-3516.5 106.5,-3510.5 106.5,-3504.5 106.5,-3504.5 106.5,-3492.5 106.5,-3492.5 106.5,-3486.5 112.5,-3480.5 118.5,-3480.5 118.5,-3480.5 214,-3480.5 214,-3480.5 220,-3480.5 226,-3486.5 226,-3492.5 226,-3492.5 226,-3504.5 226,-3504.5 226,-3510.5 220,-3516.5 214,-3516.5"/>
<text xml:space="preserve" text-anchor="middle" x="166.25" y="-3493.45" font-family="Times New Roman,serif" font-size="14.00">WMS_PRODUCT</text>
</g>
<!-- WMS_RESERVATION -->
<g id="node56" class="node">
<title>WMS_RESERVATION</title>
<path fill="none" stroke="black" d="M227.5,-3588.5C227.5,-3588.5 105,-3588.5 105,-3588.5 99,-3588.5 93,-3582.5 93,-3576.5 93,-3576.5 93,-3564.5 93,-3564.5 93,-3558.5 99,-3552.5 105,-3552.5 105,-3552.5 227.5,-3552.5 227.5,-3552.5 233.5,-3552.5 239.5,-3558.5 239.5,-3564.5 239.5,-3564.5 239.5,-3576.5 239.5,-3576.5 239.5,-3582.5 233.5,-3588.5 227.5,-3588.5"/>
<text xml:space="preserve" text-anchor="middle" x="166.25" y="-3565.45" font-family="Times New Roman,serif" font-size="14.00">WMS_RESERVATION</text>
</g>
<!-- WMS_STOCK -->
<g id="node57" class="node">
<title>WMS_STOCK</title>
<path fill="none" stroke="black" d="M204.62,-3660.5C204.62,-3660.5 127.88,-3660.5 127.88,-3660.5 121.88,-3660.5 115.88,-3654.5 115.88,-3648.5 115.88,-3648.5 115.88,-3636.5 115.88,-3636.5 115.88,-3630.5 121.88,-3624.5 127.88,-3624.5 127.88,-3624.5 204.62,-3624.5 204.62,-3624.5 210.62,-3624.5 216.62,-3630.5 216.62,-3636.5 216.62,-3636.5 216.62,-3648.5 216.62,-3648.5 216.62,-3654.5 210.62,-3660.5 204.62,-3660.5"/>
<text xml:space="preserve" text-anchor="middle" x="166.25" y="-3637.45" font-family="Times New Roman,serif" font-size="14.00">WMS_STOCK</text>
</g>
<!-- WMS_WAREHOUSE -->
<g id="node58" class="node">
<title>WMS_WAREHOUSE</title>
<path fill="none" stroke="black" d="M224.5,-3732.5C224.5,-3732.5 108,-3732.5 108,-3732.5 102,-3732.5 96,-3726.5 96,-3720.5 96,-3720.5 96,-3708.5 96,-3708.5 96,-3702.5 102,-3696.5 108,-3696.5 108,-3696.5 224.5,-3696.5 224.5,-3696.5 230.5,-3696.5 236.5,-3702.5 236.5,-3708.5 236.5,-3708.5 236.5,-3720.5 236.5,-3720.5 236.5,-3726.5 230.5,-3732.5 224.5,-3732.5"/>
<text xml:space="preserve" text-anchor="middle" x="166.25" y="-3709.45" font-family="Times New Roman,serif" font-size="14.00">WMS_WAREHOUSE</text>
</g>
<!-- TASK_DEPENDENCY -->
<g id="node59" class="node">
<title>TASK_DEPENDENCY</title>
<path fill="none" stroke="black" d="M227.88,-3804.5C227.88,-3804.5 104.62,-3804.5 104.62,-3804.5 98.62,-3804.5 92.62,-3798.5 92.62,-3792.5 92.62,-3792.5 92.62,-3780.5 92.62,-3780.5 92.62,-3774.5 98.62,-3768.5 104.62,-3768.5 104.62,-3768.5 227.88,-3768.5 227.88,-3768.5 233.88,-3768.5 239.88,-3774.5 239.88,-3780.5 239.88,-3780.5 239.88,-3792.5 239.88,-3792.5 239.88,-3798.5 233.88,-3804.5 227.88,-3804.5"/>
<text xml:space="preserve" text-anchor="middle" x="166.25" y="-3781.45" font-family="Times New Roman,serif" font-size="14.00">TASK_DEPENDENCY</text>
</g>
<!-- TASK_DEPENDENCY_REPOSITORY -->
<g id="node60" class="node">
<title>TASK_DEPENDENCY_REPOSITORY</title>
<path fill="none" stroke="black" d="M272.5,-3876.5C272.5,-3876.5 60,-3876.5 60,-3876.5 54,-3876.5 48,-3870.5 48,-3864.5 48,-3864.5 48,-3852.5 48,-3852.5 48,-3846.5 54,-3840.5 60,-3840.5 60,-3840.5 272.5,-3840.5 272.5,-3840.5 278.5,-3840.5 284.5,-3846.5 284.5,-3852.5 284.5,-3852.5 284.5,-3864.5 284.5,-3864.5 284.5,-3870.5 278.5,-3876.5 272.5,-3876.5"/>
<text xml:space="preserve" text-anchor="middle" x="166.25" y="-3853.45" font-family="Times New Roman,serif" font-size="14.00">TASK_DEPENDENCY_REPOSITORY</text>
</g>
<!-- TASK_TAG_REPOSITORY -->
<g id="node61" class="node">
<title>TASK_TAG_REPOSITORY</title>
<path fill="none" stroke="black" d="M241,-3948.5C241,-3948.5 91.5,-3948.5 91.5,-3948.5 85.5,-3948.5 79.5,-3942.5 79.5,-3936.5 79.5,-3936.5 79.5,-3924.5 79.5,-3924.5 79.5,-3918.5 85.5,-3912.5 91.5,-3912.5 91.5,-3912.5 241,-3912.5 241,-3912.5 247,-3912.5 253,-3918.5 253,-3924.5 253,-3924.5 253,-3936.5 253,-3936.5 253,-3942.5 247,-3948.5 241,-3948.5"/>
<text xml:space="preserve" text-anchor="middle" x="166.25" y="-3925.45" font-family="Times New Roman,serif" font-size="14.00">TASK_TAG_REPOSITORY</text>
</g>
<!-- TODO_APP -->
<g id="node62" class="node">
<title>TODO_APP</title>
<path fill="none" stroke="black" d="M196.75,-4020.5C196.75,-4020.5 135.75,-4020.5 135.75,-4020.5 129.75,-4020.5 123.75,-4014.5 123.75,-4008.5 123.75,-4008.5 123.75,-3996.5 123.75,-3996.5 123.75,-3990.5 129.75,-3984.5 135.75,-3984.5 135.75,-3984.5 196.75,-3984.5 196.75,-3984.5 202.75,-3984.5 208.75,-3990.5 208.75,-3996.5 208.75,-3996.5 208.75,-4008.5 208.75,-4008.5 208.75,-4014.5 202.75,-4020.5 196.75,-4020.5"/>
<text xml:space="preserve" text-anchor="middle" x="166.25" y="-3997.45" font-family="Times New Roman,serif" font-size="14.00">TODO_APP</text>
</g>
<!-- TODO_ITEM -->
<g id="node63" class="node">
<title>TODO_ITEM</title>
<path fill="none" stroke="black" d="M201.25,-492.5C201.25,-492.5 131.25,-492.5 131.25,-492.5 125.25,-492.5 119.25,-486.5 119.25,-480.5 119.25,-480.5 119.25,-468.5 119.25,-468.5 119.25,-462.5 125.25,-456.5 131.25,-456.5 131.25,-456.5 201.25,-456.5 201.25,-456.5 207.25,-456.5 213.25,-462.5 213.25,-468.5 213.25,-468.5 213.25,-480.5 213.25,-480.5 213.25,-486.5 207.25,-492.5 201.25,-492.5"/>
<text xml:space="preserve" text-anchor="middle" x="166.25" y="-469.45" font-family="Times New Roman,serif" font-size="14.00">TODO_ITEM</text>
</g>
<!-- TODO_ITEM&#45;&gt;ANY -->
<g id="edge35" class="edge">
<title>TODO_ITEM&#45;&gt;ANY</title>
<path fill="none" stroke="black" d="M213.68,-474.5C314.45,-474.5 540.75,-474.5 540.75,-474.5 540.75,-474.5 540.75,-516.82 540.75,-516.82"/>
<polygon fill="none" stroke="black" points="537.25,-516.82 540.75,-526.82 544.25,-516.82 537.25,-516.82"/>
</g>
<!-- TODO_REPOSITORY -->
<g id="node64" class="node">
<title>TODO_REPOSITORY</title>
<path fill="none" stroke="black" d="M225.62,-4092.5C225.62,-4092.5 106.88,-4092.5 106.88,-4092.5 100.88,-4092.5 94.88,-4086.5 94.88,-4080.5 94.88,-4080.5 94.88,-4068.5 94.88,-4068.5 94.88,-4062.5 100.88,-4056.5 106.88,-4056.5 106.88,-4056.5 225.62,-4056.5 225.62,-4056.5 231.62,-4056.5 237.62,-4062.5 237.62,-4068.5 237.62,-4068.5 237.62,-4080.5 237.62,-4080.5 237.62,-4086.5 231.62,-4092.5 225.62,-4092.5"/>
<text xml:space="preserve" text-anchor="middle" x="166.25" y="-4069.45" font-family="Times New Roman,serif" font-size="14.00">TODO_REPOSITORY</text>
</g>
<!-- SIMPLE_SQL_REPOSITORY -->
<g id="node65" class="node">
<title>SIMPLE_SQL_REPOSITORY</title>
<path fill="none" stroke="black" d="M622.25,-4092.5C622.25,-4092.5 460,-4092.5 460,-4092.5 454,-4092.5 448,-4086.5 448,-4080.5 448,-4080.5 448,-4068.5 448,-4068.5 448,-4062.5 454,-4056.5 460,-4056.5 460,-4056.5 622.25,-4056.5 622.25,-4056.5 628.25,-4056.5 634.25,-4062.5 634.25,-4068.5 634.25,-4068.5 634.25,-4080.5 634.25,-4080.5 634.25,-4086.5 628.25,-4092.5 622.25,-4092.5"/>
<text xml:space="preserve" text-anchor="middle" x="541.12" y="-4069.45" font-family="Times New Roman,serif" font-size="14.00">SIMPLE_SQL_REPOSITORY</text>
</g>
<!-- TODO_REPOSITORY&#45;&gt;SIMPLE_SQL_REPOSITORY -->
<g id="edge36" class="edge">
<title>TODO_REPOSITORY&#45;&gt;SIMPLE_SQL_REPOSITORY</title>
<path fill="none" stroke="black" d="M238.09,-4074.5C238.09,-4074.5 436,-4074.5 436,-4074.5"/>
<polygon fill="none" stroke="black" points="436,-4078 446,-4074.5 436,-4071 436,-4078"/>
</g>
</g>
</svg>
