<?xml version="1.0" encoding="UTF-8" standalone="no"?>
<!DOCTYPE svg PUBLIC "-//W3C//DTD SVG 1.1//EN"
 "http://www.w3.org/Graphics/SVG/1.1/DTD/svg11.dtd">
<!-- Generated by graphviz version 14.1.1 (20251213.1925)
 -->
<!-- Title: Dependencies Pages: 1 -->
<svg width="361pt" height="1725pt"
 viewBox="0.00 0.00 361.00 1725.00" xmlns="http://www.w3.org/2000/svg" xmlns:xlink="http://www.w3.org/1999/xlink">
<g id="graph0" class="graph" transform="scale(1 1) rotate(0) translate(4 1720.5)">
<title>Dependencies</title>
<polygon fill="white" stroke="none" points="-4,4 -4,-1720.5 357,-1720.5 357,4 -4,4"/>
<text xml:space="preserve" text-anchor="middle" x="176.5" y="-7.2" font-family="Times New Roman,serif" font-size="14.00">simple_web &#45; Dependencies</text>
<!-- simple_web -->
<g id="node1" class="node">
<title>simple_web</title>
<polygon fill="lightblue" stroke="black" points="82,-924.5 0,-924.5 0,-888.5 82,-888.5 82,-924.5"/>
<text xml:space="preserve" text-anchor="middle" x="41" y="-901.45" font-family="Times New Roman,serif" font-size="14.00">simple_web</text>
</g>
<!-- simple_datetime -->
<g id="node2" class="node">
<title>simple_datetime</title>
<polygon fill="lightblue" stroke="black" points="342.88,-1716.5 236.12,-1716.5 236.12,-1680.5 342.88,-1680.5 342.88,-1716.5"/>
<text xml:space="preserve" text-anchor="middle" x="289.5" y="-1693.45" font-family="Times New Roman,serif" font-size="14.00">simple_datetime</text>
</g>
<!-- simple_web&#45;&gt;simple_datetime -->
<g id="edge1" class="edge">
<title>simple_web&#45;&gt;simple_datetime</title>
<path fill="none" stroke="black" stroke-dasharray="5,2" d="M6,-924.91C6,-1043.83 6,-1698.5 6,-1698.5 6,-1698.5 224.33,-1698.5 224.33,-1698.5"/>
<polygon fill="black" stroke="black" points="224.33,-1702 234.33,-1698.5 224.33,-1695 224.33,-1702"/>
</g>
<!-- simple_process -->
<g id="node3" class="node">
<title>simple_process</title>
<polygon fill="lightblue" stroke="black" points="339.5,-1644.5 239.5,-1644.5 239.5,-1608.5 339.5,-1608.5 339.5,-1644.5"/>
<text xml:space="preserve" text-anchor="middle" x="289.5" y="-1621.45" font-family="Times New Roman,serif" font-size="14.00">simple_process</text>
</g>
<!-- simple_web&#45;&gt;simple_process -->
<g id="edge2" class="edge">
<title>simple_web&#45;&gt;simple_process</title>
<path fill="none" stroke="black" stroke-dasharray="5,2" d="M13,-924.66C13,-1036.45 13,-1626.5 13,-1626.5 13,-1626.5 227.59,-1626.5 227.59,-1626.5"/>
<polygon fill="black" stroke="black" points="227.59,-1630 237.59,-1626.5 227.59,-1623 227.59,-1630"/>
</g>
<!-- simple_json -->
<g id="node4" class="node">
<title>simple_json</title>
<polygon fill="lightblue" stroke="black" points="330.5,-1572.5 248.5,-1572.5 248.5,-1536.5 330.5,-1536.5 330.5,-1572.5"/>
<text xml:space="preserve" text-anchor="middle" x="289.5" y="-1549.45" font-family="Times New Roman,serif" font-size="14.00">simple_json</text>
</g>
<!-- simple_web&#45;&gt;simple_json -->
<g id="edge3" class="edge">
<title>simple_web&#45;&gt;simple_json</title>
<path fill="none" stroke="black" stroke-dasharray="5,2" d="M19,-924.85C19,-1030.3 19,-1554.5 19,-1554.5 19,-1554.5 236.61,-1554.5 236.61,-1554.5"/>
<polygon fill="black" stroke="black" points="236.61,-1558 246.61,-1554.5 236.61,-1551 236.61,-1558"/>
</g>
<!-- simple_logger -->
<g id="node5" class="node">
<title>simple_logger</title>
<polygon fill="lightblue" stroke="black" points="336.5,-1500.5 242.5,-1500.5 242.5,-1464.5 336.5,-1464.5 336.5,-1500.5"/>
<text xml:space="preserve" text-anchor="middle" x="289.5" y="-1477.45" font-family="Times New Roman,serif" font-size="14.00">simple_logger</text>
</g>
<!-- simple_web&#45;&gt;simple_logger -->
<g id="edge4" class="edge">
<title>simple_web&#45;&gt;simple_logger</title>
<path fill="none" stroke="black" stroke-dasharray="5,2" d="M25,-924.69C25,-1022.6 25,-1482.5 25,-1482.5 25,-1482.5 230.7,-1482.5 230.7,-1482.5"/>
<polygon fill="black" stroke="black" points="230.7,-1486 240.7,-1482.5 230.7,-1479 230.7,-1486"/>
</g>
<!-- simple_testing -->
<g id="node6" class="node">
<title>simple_testing</title>
<polygon fill="lightblue" stroke="black" points="337.25,-1428.5 241.75,-1428.5 241.75,-1392.5 337.25,-1392.5 337.25,-1428.5"/>
<text xml:space="preserve" text-anchor="middle" x="289.5" y="-1405.45" font-family="Times New Roman,serif" font-size="14.00">simple_testing</text>
</g>
<!-- simple_web&#45;&gt;simple_testing -->
<g id="edge5" class="edge">
<title>simple_web&#45;&gt;simple_testing</title>
<path fill="none" stroke="black" stroke-dasharray="5,2" d="M32,-924.74C32,-1015.09 32,-1410.5 32,-1410.5 32,-1410.5 229.85,-1410.5 229.85,-1410.5"/>
<polygon fill="black" stroke="black" points="229.85,-1414 239.85,-1410.5 229.85,-1407 229.85,-1414"/>
</g>
<!-- simple_randomizer -->
<g id="node7" class="node">
<title>simple_randomizer</title>
<polygon fill="lightblue" stroke="black" points="350.38,-1356.5 228.62,-1356.5 228.62,-1320.5 350.38,-1320.5 350.38,-1356.5"/>
<text xml:space="preserve" text-anchor="middle" x="289.5" y="-1333.45" font-family="Times New Roman,serif" font-size="14.00">simple_randomizer</text>
</g>
<!-- simple_web&#45;&gt;simple_randomizer -->
<g id="edge6" class="edge">
<title>simple_web&#45;&gt;simple_randomizer</title>
<path fill="none" stroke="black" stroke-dasharray="5,2" d="M38,-924.79C38,-1007.01 38,-1338.5 38,-1338.5 38,-1338.5 216.78,-1338.5 216.78,-1338.5"/>
<polygon fill="black" stroke="black" points="216.78,-1342 226.78,-1338.5 216.78,-1335 216.78,-1342"/>
</g>
<!-- simple_sql -->
<g id="node8" class="node">
<title>simple_sql</title>
<polygon fill="lightblue" stroke="black" points="327.12,-1284.5 251.88,-1284.5 251.88,-1248.5 327.12,-1248.5 327.12,-1284.5"/>
<text xml:space="preserve" text-anchor="middle" x="289.5" y="-1261.45" font-family="Times New Roman,serif" font-size="14.00">simple_sql</text>
</g>
<!-- simple_web&#45;&gt;simple_sql -->
<g id="edge7" class="edge">
<title>simple_web&#45;&gt;simple_sql</title>
<path fill="none" stroke="black" stroke-dasharray="5,2" d="M50,-924.54C50,-996.68 50,-1260.5 50,-1260.5 50,-1260.5 240.04,-1260.5 240.04,-1260.5"/>
<polygon fill="black" stroke="black" points="240.04,-1264 250.04,-1260.5 240.04,-1257 240.04,-1264"/>
</g>
<!-- simple_web&#45;&gt;simple_sql -->
<g id="edge8" class="edge">
<title>simple_web&#45;&gt;simple_sql</title>
<path fill="none" stroke="black" stroke-dasharray="5,2" d="M44,-924.9C44,-999.12 44,-1272.5 44,-1272.5 44,-1272.5 239.9,-1272.5 239.9,-1272.5"/>
<polygon fill="black" stroke="black" points="239.9,-1276 249.9,-1272.5 239.9,-1269 239.9,-1276"/>
</g>
<!-- base -->
<g id="node9" class="node">
<title>base</title>
<polygon fill="lightgray" stroke="black" points="316.5,-1212.5 262.5,-1212.5 262.5,-1176.5 316.5,-1176.5 316.5,-1212.5"/>
<text xml:space="preserve" text-anchor="middle" x="289.5" y="-1189.45" font-family="Times New Roman,serif" font-size="14.00">base</text>
</g>
<!-- simple_web&#45;&gt;base -->
<g id="edge9" class="edge">
<title>simple_web&#45;&gt;base</title>
<path fill="none" stroke="black" stroke-dasharray="5,2" d="M57,-924.95C57,-988.52 57,-1194.5 57,-1194.5 57,-1194.5 250.86,-1194.5 250.86,-1194.5"/>
<polygon fill="black" stroke="black" points="250.86,-1198 260.86,-1194.5 250.86,-1191 250.86,-1198"/>
</g>
<!-- curl_http_client -->
<g id="node10" class="node">
<title>curl_http_client</title>
<polygon fill="lightgray" stroke="black" points="340.25,-1140.5 238.75,-1140.5 238.75,-1104.5 340.25,-1104.5 340.25,-1140.5"/>
<text xml:space="preserve" text-anchor="middle" x="289.5" y="-1117.45" font-family="Times New Roman,serif" font-size="14.00">curl_http_client</text>
</g>
<!-- simple_web&#45;&gt;curl_http_client -->
<g id="edge10" class="edge">
<title>simple_web&#45;&gt;curl_http_client</title>
<path fill="none" stroke="black" stroke-dasharray="5,2" d="M63,-924.92C63,-977.15 63,-1122.5 63,-1122.5 63,-1122.5 226.87,-1122.5 226.87,-1122.5"/>
<polygon fill="black" stroke="black" points="226.87,-1126 236.87,-1122.5 226.87,-1119 226.87,-1126"/>
</g>
<!-- default_standalone -->
<g id="node11" class="node">
<title>default_standalone</title>
<polygon fill="lightgray" stroke="black" points="348.5,-1068.5 230.5,-1068.5 230.5,-1032.5 348.5,-1032.5 348.5,-1068.5"/>
<text xml:space="preserve" text-anchor="middle" x="289.5" y="-1045.45" font-family="Times New Roman,serif" font-size="14.00">default_standalone</text>
</g>
<!-- simple_web&#45;&gt;default_standalone -->
<g id="edge11" class="edge">
<title>simple_web&#45;&gt;default_standalone</title>
<path fill="none" stroke="black" stroke-dasharray="5,2" d="M69,-924.74C69,-963.49 69,-1050.5 69,-1050.5 69,-1050.5 218.61,-1050.5 218.61,-1050.5"/>
<polygon fill="black" stroke="black" points="218.61,-1054 228.61,-1050.5 218.61,-1047 218.61,-1054"/>
</g>
<!-- encoder -->
<g id="node12" class="node">
<title>encoder</title>
<polygon fill="lightgray" stroke="black" points="318.88,-996.5 260.12,-996.5 260.12,-960.5 318.88,-960.5 318.88,-996.5"/>
<text xml:space="preserve" text-anchor="middle" x="289.5" y="-973.45" font-family="Times New Roman,serif" font-size="14.00">encoder</text>
</g>
<!-- simple_web&#45;&gt;encoder -->
<g id="edge12" class="edge">
<title>simple_web&#45;&gt;encoder</title>
<path fill="none" stroke="black" stroke-dasharray="5,2" d="M76,-924.67C76,-946 76,-978.5 76,-978.5 76,-978.5 248.3,-978.5 248.3,-978.5"/>
<polygon fill="black" stroke="black" points="248.3,-982 258.3,-978.5 248.3,-975 248.3,-982"/>
</g>
<!-- http_authorization -->
<g id="node13" class="node">
<title>http_authorization</title>
<polygon fill="lightgray" stroke="black" points="347,-924.5 232,-924.5 232,-888.5 347,-888.5 347,-924.5"/>
<text xml:space="preserve" text-anchor="middle" x="289.5" y="-901.45" font-family="Times New Roman,serif" font-size="14.00">http_authorization</text>
</g>
<!-- simple_web&#45;&gt;http_authorization -->
<g id="edge13" class="edge">
<title>simple_web&#45;&gt;http_authorization</title>
<path fill="none" stroke="black" stroke-dasharray="5,2" d="M82.31,-906.5C82.31,-906.5 220.29,-906.5 220.29,-906.5"/>
<polygon fill="black" stroke="black" points="220.29,-910 230.29,-906.5 220.29,-903 220.29,-910"/>
</g>
<!-- http_network -->
<g id="node14" class="node">
<title>http_network</title>
<polygon fill="lightgray" stroke="black" points="333.5,-852.5 245.5,-852.5 245.5,-816.5 333.5,-816.5 333.5,-852.5"/>
<text xml:space="preserve" text-anchor="middle" x="289.5" y="-829.45" font-family="Times New Roman,serif" font-size="14.00">http_network</text>
</g>
<!-- simple_web&#45;&gt;http_network -->
<g id="edge14" class="edge">
<title>simple_web&#45;&gt;http_network</title>
<path fill="none" stroke="black" stroke-dasharray="5,2" d="M76,-888.33C76,-867 76,-834.5 76,-834.5 76,-834.5 233.49,-834.5 233.49,-834.5"/>
<polygon fill="black" stroke="black" points="233.49,-838 243.49,-834.5 233.49,-831 233.49,-838"/>
</g>
<!-- httpd -->
<g id="node15" class="node">
<title>httpd</title>
<polygon fill="lightgray" stroke="black" points="316.5,-780.5 262.5,-780.5 262.5,-744.5 316.5,-744.5 316.5,-780.5"/>
<text xml:space="preserve" text-anchor="middle" x="289.5" y="-757.45" font-family="Times New Roman,serif" font-size="14.00">httpd</text>
</g>
<!-- simple_web&#45;&gt;httpd -->
<g id="edge15" class="edge">
<title>simple_web&#45;&gt;httpd</title>
<path fill="none" stroke="black" stroke-dasharray="5,2" d="M69,-888.26C69,-849.51 69,-762.5 69,-762.5 69,-762.5 250.51,-762.5 250.51,-762.5"/>
<polygon fill="black" stroke="black" points="250.51,-766 260.51,-762.5 250.51,-759 250.51,-766"/>
</g>
<!-- jwt -->
<g id="node16" class="node">
<title>jwt</title>
<polygon fill="lightgray" stroke="black" points="316.5,-708.5 262.5,-708.5 262.5,-672.5 316.5,-672.5 316.5,-708.5"/>
<text xml:space="preserve" text-anchor="middle" x="289.5" y="-685.45" font-family="Times New Roman,serif" font-size="14.00">jwt</text>
</g>
<!-- simple_web&#45;&gt;jwt -->
<g id="edge16" class="edge">
<title>simple_web&#45;&gt;jwt</title>
<path fill="none" stroke="black" stroke-dasharray="5,2" d="M63,-888.08C63,-835.85 63,-690.5 63,-690.5 63,-690.5 250.67,-690.5 250.67,-690.5"/>
<polygon fill="black" stroke="black" points="250.67,-694 260.67,-690.5 250.67,-687 250.67,-694"/>
</g>
<!-- jwt_openssl -->
<g id="node17" class="node">
<title>jwt_openssl</title>
<polygon fill="lightgray" stroke="black" points="329.75,-636.5 249.25,-636.5 249.25,-600.5 329.75,-600.5 329.75,-636.5"/>
<text xml:space="preserve" text-anchor="middle" x="289.5" y="-613.45" font-family="Times New Roman,serif" font-size="14.00">jwt_openssl</text>
</g>
<!-- simple_web&#45;&gt;jwt_openssl -->
<g id="edge17" class="edge">
<title>simple_web&#45;&gt;jwt_openssl</title>
<path fill="none" stroke="black" stroke-dasharray="5,2" d="M57,-888.05C57,-824.48 57,-618.5 57,-618.5 57,-618.5 237.49,-618.5 237.49,-618.5"/>
<polygon fill="black" stroke="black" points="237.49,-622 247.49,-618.5 237.49,-615 237.49,-622"/>
</g>
<!-- oauth_module -->
<g id="node18" class="node">
<title>oauth_module</title>
<polygon fill="lightgray" stroke="black" points="336.5,-564.5 242.5,-564.5 242.5,-528.5 336.5,-528.5 336.5,-564.5"/>
<text xml:space="preserve" text-anchor="middle" x="289.5" y="-541.45" font-family="Times New Roman,serif" font-size="14.00">oauth_module</text>
</g>
<!-- simple_web&#45;&gt;oauth_module -->
<g id="edge18" class="edge">
<title>simple_web&#45;&gt;oauth_module</title>
<path fill="none" stroke="black" stroke-dasharray="5,2" d="M50,-888.15C50,-814.79 50,-546.5 50,-546.5 50,-546.5 230.67,-546.5 230.67,-546.5"/>
<polygon fill="black" stroke="black" points="230.67,-550 240.67,-546.5 230.67,-543 230.67,-550"/>
</g>
<!-- standalone_launcher -->
<g id="node19" class="node">
<title>standalone_launcher</title>
<polygon fill="lightgray" stroke="black" points="353,-492.5 226,-492.5 226,-456.5 353,-456.5 353,-492.5"/>
<text xml:space="preserve" text-anchor="middle" x="289.5" y="-469.45" font-family="Times New Roman,serif" font-size="14.00">standalone_launcher</text>
</g>
<!-- simple_web&#45;&gt;standalone_launcher -->
<g id="edge19" class="edge">
<title>simple_web&#45;&gt;standalone_launcher</title>
<path fill="none" stroke="black" stroke-dasharray="5,2" d="M44,-888.21C44,-805.99 44,-474.5 44,-474.5 44,-474.5 214.13,-474.5 214.13,-474.5"/>
<polygon fill="black" stroke="black" points="214.13,-478 224.13,-474.5 214.13,-471 214.13,-478"/>
</g>
<!-- testing -->
<g id="node20" class="node">
<title>testing</title>
<polygon fill="lightgray" stroke="black" points="316.5,-420.5 262.5,-420.5 262.5,-384.5 316.5,-384.5 316.5,-420.5"/>
<text xml:space="preserve" text-anchor="middle" x="289.5" y="-397.45" font-family="Times New Roman,serif" font-size="14.00">testing</text>
</g>
<!-- simple_web&#45;&gt;testing -->
<g id="edge20" class="edge">
<title>simple_web&#45;&gt;testing</title>
<path fill="none" stroke="black" stroke-dasharray="5,2" d="M38,-888.26C38,-797.91 38,-402.5 38,-402.5 38,-402.5 250.59,-402.5 250.59,-402.5"/>
<polygon fill="black" stroke="black" points="250.59,-406 260.59,-402.5 250.59,-399 250.59,-406"/>
</g>
<!-- uri -->
<g id="node21" class="node">
<title>uri</title>
<polygon fill="lightgray" stroke="black" points="316.5,-348.5 262.5,-348.5 262.5,-312.5 316.5,-312.5 316.5,-348.5"/>
<text xml:space="preserve" text-anchor="middle" x="289.5" y="-325.45" font-family="Times New Roman,serif" font-size="14.00">uri</text>
</g>
<!-- simple_web&#45;&gt;uri -->
<g id="edge21" class="edge">
<title>simple_web&#45;&gt;uri</title>
<path fill="none" stroke="black" stroke-dasharray="5,2" d="M32,-888.31C32,-790.4 32,-330.5 32,-330.5 32,-330.5 250.92,-330.5 250.92,-330.5"/>
<polygon fill="black" stroke="black" points="250.92,-334 260.92,-330.5 250.92,-327 250.92,-334"/>
</g>
<!-- uri_launcher -->
<g id="node22" class="node">
<title>uri_launcher</title>
<polygon fill="lightgray" stroke="black" points="331.62,-276.5 247.38,-276.5 247.38,-240.5 331.62,-240.5 331.62,-276.5"/>
<text xml:space="preserve" text-anchor="middle" x="289.5" y="-253.45" font-family="Times New Roman,serif" font-size="14.00">uri_launcher</text>
</g>
<!-- simple_web&#45;&gt;uri_launcher -->
<g id="edge22" class="edge">
<title>simple_web&#45;&gt;uri_launcher</title>
<path fill="none" stroke="black" stroke-dasharray="5,2" d="M25,-888.15C25,-782.7 25,-258.5 25,-258.5 25,-258.5 235.49,-258.5 235.49,-258.5"/>
<polygon fill="black" stroke="black" points="235.49,-262 245.49,-258.5 235.49,-255 235.49,-262"/>
</g>
<!-- uri_template -->
<g id="node23" class="node">
<title>uri_template</title>
<polygon fill="lightgray" stroke="black" points="332,-204.5 247,-204.5 247,-168.5 332,-168.5 332,-204.5"/>
<text xml:space="preserve" text-anchor="middle" x="289.5" y="-181.45" font-family="Times New Roman,serif" font-size="14.00">uri_template</text>
</g>
<!-- simple_web&#45;&gt;uri_template -->
<g id="edge23" class="edge">
<title>simple_web&#45;&gt;uri_template</title>
<path fill="none" stroke="black" stroke-dasharray="5,2" d="M19,-888.34C19,-776.55 19,-186.5 19,-186.5 19,-186.5 235.12,-186.5 235.12,-186.5"/>
<polygon fill="black" stroke="black" points="235.12,-190 245.12,-186.5 235.12,-183 235.12,-190"/>
</g>
<!-- wsf -->
<g id="node24" class="node">
<title>wsf</title>
<polygon fill="lightgray" stroke="black" points="316.5,-132.5 262.5,-132.5 262.5,-96.5 316.5,-96.5 316.5,-132.5"/>
<text xml:space="preserve" text-anchor="middle" x="289.5" y="-109.45" font-family="Times New Roman,serif" font-size="14.00">wsf</text>
</g>
<!-- simple_web&#45;&gt;wsf -->
<g id="edge24" class="edge">
<title>simple_web&#45;&gt;wsf</title>
<path fill="none" stroke="black" stroke-dasharray="5,2" d="M13,-888.09C13,-769.17 13,-114.5 13,-114.5 13,-114.5 250.72,-114.5 250.72,-114.5"/>
<polygon fill="black" stroke="black" points="250.72,-118 260.72,-114.5 250.72,-111 250.72,-118"/>
</g>
<!-- wsf_all -->
<g id="node25" class="node">
<title>wsf_all</title>
<polygon fill="lightgray" stroke="black" points="317.38,-60.5 261.62,-60.5 261.62,-24.5 317.38,-24.5 317.38,-60.5"/>
<text xml:space="preserve" text-anchor="middle" x="289.5" y="-37.45" font-family="Times New Roman,serif" font-size="14.00">wsf_all</text>
</g>
<!-- simple_web&#45;&gt;wsf_all -->
<g id="edge25" class="edge">
<title>simple_web&#45;&gt;wsf_all</title>
<path fill="none" stroke="black" stroke-dasharray="5,2" d="M6,-888.05C6,-762.84 6,-42.5 6,-42.5 6,-42.5 249.77,-42.5 249.77,-42.5"/>
<polygon fill="black" stroke="black" points="249.77,-46 259.77,-42.5 249.77,-39 249.77,-46"/>
</g>
</g>
</svg>
